<svg width="210" height="43" viewBox="0 0 210 43" fill="none" xmlns="http://www.w3.org/2000/svg">
<path d="M1.37981 1.94504C0.830607 2.00333 0.432646 2.4958 0.490937 3.045L1.44084 11.9947C1.49913 12.5439 1.9916 12.9419 2.5408 12.8836C3.09 12.8253 3.48796 12.3328 3.42967 11.7836L2.58531 3.82832L10.5406 2.98396C11.0898 2.92567 11.4878 2.4332 11.4295 1.884C11.3712 1.3348 10.8787 0.936844 10.3295 0.995135L1.37981 1.94504ZM209.009 39.0792C184.51 41.0029 144.731 41.4591 105.074 36.5728C65.3682 31.6807 25.9902 21.4559 2.11388 2.16166L0.856826 3.71724C25.1977 23.3869 65.0654 33.6585 104.829 38.5578C144.64 43.4629 184.554 43.0055 209.165 41.0731L209.009 39.0792Z" fill="black"/>
</svg>
