<svg width="546" height="555" viewBox="0 0 546 555" fill="none" xmlns="http://www.w3.org/2000/svg">
<path d="M 322.5 716.1 C 288.3 645.8 314.5 555.7 362 498.3 C 366.9 492.3 372.3 486.4 379.3 483.1 C 386.4 479.9 395.6 480.1 401.1 485.5 C 409.3 493.8 404.2 509.3 393.9 514.8 C 383.6 520.4 370.9 518.6 359.7 515.3 C 315.6 502.1 279 466.6 263.6 423.3 C 248.1 379.9 253.7 329.8 277.5 290.3 C 287.9 273 302.6 257 321.8 250.9 C 341.1 244.8 365.4 251.6 374.2 269.7 C 385.3 292.4 368.8 319.2 349.5 335.5 C 289.8 386.1 197.4 390.3 130.3 350.3 C 63.2 310.4 23.4 231.1 25.3 153.1 C 25.7 135.2 29.3 115.3 43.6 104.6 C 58.4 93.5 80 96.4 95.9 105.8 C 128.8 125.1 143.4 167.5 137.8 205.2 C 128.2 270 63.8 320.2 -1.7 318.5 C -67.1 316.7 -126.9 266.9 -145.3 204.1" stroke="#cc0033" stroke-width="8" stroke-miterlimit="10" stroke-linecap="round" stroke-linejoin="round"/>
</svg>
