<svg width="549" height="555" viewBox="0 0 549 555" fill="none" xmlns="http://www.w3.org/2000/svg">
<path d="M223.298 -160.982C257.421 -90.7183 231.217 -0.613144 183.801 56.7727C178.851 62.7562 173.493 68.7351 166.434 71.9774C159.375 75.2197 150.196 75.0344 144.701 69.5648C136.426 61.3259 141.591 45.8 151.871 40.2504C162.151 34.7007 174.819 36.5013 186.013 39.8275C230.149 52.9551 266.714 88.4838 282.173 131.831C297.639 175.192 292.017 225.299 268.294 264.779C257.875 282.114 243.203 298.103 223.911 304.197C204.613 310.276 180.39 303.535 171.518 285.371C160.416 262.651 176.995 235.908 196.3 219.544C255.928 169.042 348.339 164.786 415.455 204.743C482.571 244.7 522.378 323.954 520.456 402.03C520.021 419.919 516.469 439.778 502.145 450.499C487.341 461.589 465.784 458.668 449.849 449.304C416.926 429.971 402.407 387.619 407.984 349.843C417.55 285.107 481.987 234.904 547.42 236.641C612.854 238.379 672.622 288.219 691.046 350.995" stroke="#CC0033" stroke-width="8" stroke-miterlimit="10" stroke-linecap="round" stroke-linejoin="round"/>
</svg>
