<svg width="37" height="37" viewBox="0 0 37 37" fill="none" xmlns="http://www.w3.org/2000/svg">
<rect width="37" height="37" rx="18.5" fill="#2979FF"/>
<path d="M18.0196 8.91016C14.7096 8.91016 12.0196 11.6002 12.0196 14.9102V17.8002C12.0196 18.4102 11.7596 19.3402 11.4496 19.8602L10.2996 21.7702C9.5896 22.9502 10.0796 24.2602 11.3796 24.7002C15.6896 26.1402 20.3396 26.1402 24.6496 24.7002C25.8596 24.3002 26.3896 22.8702 25.7296 21.7702L24.5796 19.8602C24.2796 19.3402 24.0196 18.4102 24.0196 17.8002V14.9102C24.0196 11.6102 21.3196 8.91016 18.0196 8.91016Z" stroke="white" stroke-width="1.5" stroke-miterlimit="10" stroke-linecap="round"/>
<path d="M19.8699 9.20141C19.5599 9.11141 19.2399 9.04141 18.9099 9.00141C17.9499 8.88141 17.0299 8.95141 16.1699 9.20141C16.4599 8.46141 17.1799 7.94141 18.0199 7.94141C18.8599 7.94141 19.5799 8.46141 19.8699 9.20141Z" stroke="white" stroke-width="1.5" stroke-miterlimit="10" stroke-linecap="round" stroke-linejoin="round"/>
<path d="M21.0195 25.0586C21.0195 26.7086 19.6695 28.0586 18.0195 28.0586C17.1995 28.0586 16.4395 27.7186 15.8995 27.1786C15.3595 26.6386 15.0195 25.8786 15.0195 25.0586" stroke="white" stroke-width="1.5" stroke-miterlimit="10"/>
</svg>
