<svg width="12" height="23" viewBox="0 0 12 23" fill="none" xmlns="http://www.w3.org/2000/svg">
<path d="M8.25781 15.5723C8.25781 14.9316 8.07812 14.4238 7.71875 14.0488C7.36719 13.666 6.76562 13.3145 5.91406 12.9941C5.0625 12.6738 4.32812 12.3574 3.71094 12.0449C3.09375 11.7246 2.5625 11.3613 2.11719 10.9551C1.67969 10.541 1.33594 10.0566 1.08594 9.50195C0.84375 8.94727 0.722656 8.28711 0.722656 7.52148C0.722656 6.20117 1.14453 5.11914 1.98828 4.27539C2.83203 3.43164 3.95312 2.93945 5.35156 2.79883V0.291016H7.22656V2.83398C8.60938 3.0293 9.69141 3.60742 10.4727 4.56836C11.2539 5.52148 11.6445 6.75977 11.6445 8.2832H8.25781C8.25781 7.3457 8.0625 6.64648 7.67188 6.18555C7.28906 5.7168 6.77344 5.48242 6.125 5.48242C5.48438 5.48242 4.98828 5.66602 4.63672 6.0332C4.28516 6.39258 4.10938 6.89258 4.10938 7.5332C4.10938 8.12695 4.28125 8.60352 4.625 8.96289C4.96875 9.32227 5.60547 9.68945 6.53516 10.0645C7.47266 10.4395 8.24219 10.7949 8.84375 11.1309C9.44531 11.459 9.95312 11.834 10.3672 12.2559C10.7812 12.6699 11.0977 13.1465 11.3164 13.6855C11.5352 14.2168 11.6445 14.8379 11.6445 15.5488C11.6445 16.877 11.2305 17.9551 10.4023 18.7832C9.57422 19.6113 8.43359 20.0996 6.98047 20.248V22.5801H5.11719V20.2598C3.51562 20.0879 2.27344 19.5215 1.39062 18.5605C0.515625 17.5918 0.078125 16.3066 0.078125 14.7051H3.46484C3.46484 15.6348 3.68359 16.3496 4.12109 16.8496C4.56641 17.3418 5.20312 17.5879 6.03125 17.5879C6.71875 17.5879 7.26172 17.4082 7.66016 17.0488C8.05859 16.6816 8.25781 16.1895 8.25781 15.5723Z" fill="#778CA2"/>
</svg>
