<svg width="13" height="15" viewBox="0 0 13 15" fill="none" xmlns="http://www.w3.org/2000/svg">
<path fill-rule="evenodd" clip-rule="evenodd" d="M3.95615 10.1698C4.28134 10.495 4.80841 10.4953 5.13391 10.1706L5.13413 10.1704L5.13467 10.1698L8.9059 6.39859L10.3201 4.98438C11.1663 4.13824 11.1663 2.76638 10.3201 1.92025C9.47398 1.07411 8.10212 1.07411 7.25599 1.92025L2.07054 7.1057C2.07028 7.10595 2.07002 7.10621 2.06976 7.10647C0.703701 8.47337 0.70396 10.6889 2.07054 12.0554C3.43737 13.4223 5.65345 13.4223 7.02028 12.0554L11.2629 7.8128C11.4582 7.61754 11.7748 7.61754 11.97 7.8128C12.1653 8.00807 12.1653 8.32465 11.97 8.51991L7.72739 12.7626C5.97003 14.5199 3.12079 14.5199 1.36343 12.7626C-0.382329 11.0168 -0.393853 8.19352 1.32886 6.43353L1.32867 6.43335L1.36343 6.39859L6.54888 1.21314C7.78554 -0.0235205 9.79056 -0.0235205 11.0272 1.21314C12.2639 2.4498 12.2639 4.45482 11.0272 5.69148L9.61301 7.1057L5.84177 10.8769L5.80702 10.9117L5.80656 10.9112C5.08824 11.5927 3.95339 11.5813 3.24905 10.8769C2.53309 10.161 2.53309 9.00017 3.24905 8.28421L8.4345 3.09876C8.62976 2.9035 8.94634 2.9035 9.1416 3.09876C9.33687 3.29402 9.33687 3.6106 9.1416 3.80586L3.95615 8.99131C3.63072 9.31675 3.63072 9.84439 3.95615 10.1698Z" fill="#92929D"/>
</svg>
