<svg width="22" height="17" viewBox="0 0 22 17" fill="none" xmlns="http://www.w3.org/2000/svg">
<path fill-rule="evenodd" clip-rule="evenodd" d="M3.00008 0H19.0001C20.6569 0 22.0001 1.34315 22.0001 3V3.42743C22.0002 3.43617 22.0002 3.44489 22.0001 3.45362V14C22.0001 15.6569 20.6569 17 19.0001 17H3.00008C1.34323 17 8.50252e-05 15.6569 8.50252e-05 14V3.45358C-2.82732e-05 3.44488 -2.84103e-05 3.43618 8.50252e-05 3.42747V3C8.50252e-05 1.34315 1.34323 0 3.00008 0ZM2.00008 5.36205V14C2.00008 14.5523 2.4478 15 3.00008 15H19.0001C19.5524 15 20.0001 14.5523 20.0001 14V5.36205L12.7205 10.4578C11.6875 11.1809 10.3127 11.1809 9.2797 10.4578L2.00008 5.36205ZM19.9972 2.9228L11.5735 8.81932C11.2292 9.06034 10.7709 9.06034 10.4266 8.81932L2.00302 2.9228C2.04243 2.40659 2.47378 2 3.00008 2H19.0001C19.5264 2 19.9577 2.40659 19.9972 2.9228Z" fill="#92929D"/>
</svg>
