<svg width="16" height="19" viewBox="0 0 16 19" fill="none" xmlns="http://www.w3.org/2000/svg">
<path fill-rule="evenodd" clip-rule="evenodd" d="M3.51142 5.32353C3.51142 2.65957 5.62946 0.5 8.24219 0.5C10.8549 0.5 12.973 2.65957 12.973 5.32353C12.973 6.99625 12.1379 8.4701 10.8696 9.33533C13.7158 10.4209 15.7422 13.2192 15.7422 16.5V18.5H0.742188V16.5C0.742187 13.2192 2.76853 10.4209 5.61476 9.33533C4.34649 8.4701 3.51142 6.99625 3.51142 5.32353ZM8.24219 8.02941C9.70787 8.02941 10.896 6.81795 10.896 5.32353C10.896 3.82911 9.70787 2.61765 8.24219 2.61765C6.77651 2.61765 5.58834 3.82911 5.58834 5.32353C5.58834 6.81795 6.77651 8.02941 8.24219 8.02941ZM8.24219 10.9706C5.28566 10.9706 2.88172 13.3829 2.82031 16.3824H13.6641C13.6027 13.3829 11.1987 10.9706 8.24219 10.9706Z" fill="#1E22AA"/>
</svg>
