<svg width="20" height="21" viewBox="0 0 20 21" fill="none" xmlns="http://www.w3.org/2000/svg">
<path fill-rule="evenodd" clip-rule="evenodd" d="M7.63086 9.78767C7.44972 9.59699 7.41655 9.15412 7.6506 8.6283C8.52806 6.28282 8.6471 5.84757 8.0848 5.25568L4.47548 1.45639C3.78231 0.726752 2.68097 0.912499 1.99996 1.62935C-0.666652 4.43631 -0.666652 8.96707 1.99996 11.774L8.74233 18.8713C11.4365 21.7073 15.827 21.7073 18.5212 18.8713C19.1798 18.178 19.3429 17.1063 18.6855 16.4143L15.0761 12.615C14.4712 11.9782 14.0602 12.1028 11.8056 13.0352C11.2857 13.2892 10.9292 13.2596 10.7707 13.0928L7.63086 9.78767ZM17.0113 17.5558C15.1017 19.4995 12.0782 19.4789 10.1923 17.4938L3.44995 10.3965C1.56023 8.40735 1.51766 5.19077 3.32226 3.14629L6.328 6.31023L6.32107 6.33578C6.22675 6.68069 6.05248 7.19592 5.80014 7.87198C5.28582 9.02282 5.3834 10.3257 6.18086 11.1652L9.32075 14.4703C10.1409 15.3337 11.4429 15.4417 12.6301 14.8562C13.1804 14.6308 13.6471 14.4549 13.9696 14.354L17.0113 17.5558Z" fill="#92929D"/>
<path d="M11.7 9.19826C11.7 8.75643 11.3418 8.39826 10.9 8.39826C10.3477 8.39826 9.9 7.95055 9.9 7.39826C9.9 6.84598 10.3477 6.39826 10.9 6.39826C12.4464 6.39826 13.7 7.65186 13.7 9.19826C13.7 9.75055 13.2523 10.1983 12.7 10.1983C12.1477 10.1983 11.7 9.75055 11.7 9.19826Z" fill="#92929D"/>
<path d="M10.9 5.69826C12.833 5.69826 14.4 7.26526 14.4 9.19826C14.4 9.75055 14.8477 10.1983 15.4 10.1983C15.9523 10.1983 16.4 9.75055 16.4 9.19826C16.4 6.16069 13.9376 3.69826 10.9 3.69826C10.3477 3.69826 9.9 4.14598 9.9 4.69826C9.9 5.25055 10.3477 5.69826 10.9 5.69826Z" fill="#92929D"/>
<path d="M17.1 9.19826C17.1 5.7741 14.3242 2.99826 10.9 2.99826C10.3477 2.99826 9.9 2.55055 9.9 1.99826C9.9 1.44598 10.3477 0.998261 10.9 0.998261C15.4287 0.998261 19.1 4.66953 19.1 9.19826C19.1 9.75055 18.6523 10.1983 18.1 10.1983C17.5477 10.1983 17.1 9.75055 17.1 9.19826Z" fill="#92929D"/>
</svg>
