<svg width="34" height="34" viewBox="0 0 34 34" fill="none" xmlns="http://www.w3.org/2000/svg">
<circle cx="17" cy="17" r="15.5" fill="white" stroke="#989FB0" stroke-width="3"/>
<mask id="path-2-inside-1" fill="white">
<path d="M31.5945 16.9999C31.5945 19.8864 30.7385 22.7081 29.1348 25.1082C27.5312 27.5083 25.2518 29.3789 22.585 30.4835C19.9182 31.5881 16.9837 31.8772 14.1526 31.314C11.3215 30.7509 8.72102 29.3609 6.67993 27.3198C4.63884 25.2787 3.24884 22.6782 2.6857 19.8471C2.12257 17.0161 2.41159 14.0816 3.51622 11.4148C4.62085 8.74794 6.49148 6.46858 8.89155 4.86491C11.2916 3.26123 14.1133 2.40527 16.9999 2.40527L16.9999 16.9999H31.5945Z"/>
</mask>
<path d="M31.5945 16.9999C31.5945 19.8864 30.7385 22.7081 29.1348 25.1082C27.5312 27.5083 25.2518 29.3789 22.585 30.4835C19.9182 31.5881 16.9837 31.8772 14.1526 31.314C11.3215 30.7509 8.72102 29.3609 6.67993 27.3198C4.63884 25.2787 3.24884 22.6782 2.6857 19.8471C2.12257 17.0161 2.41159 14.0816 3.51622 11.4148C4.62085 8.74794 6.49148 6.46858 8.89155 4.86491C11.2916 3.26123 14.1133 2.40527 16.9999 2.40527L16.9999 16.9999H31.5945Z" fill="white" stroke="#989FB0" stroke-width="4" mask="url(#path-2-inside-1)"/>
<mask id="path-3-inside-2" fill="white">
<path d="M31.5945 16.9999C31.5945 15.0833 31.217 13.1855 30.4835 11.4148C29.7501 9.64406 28.675 8.03516 27.3198 6.67993C25.9646 5.3247 24.3557 4.24967 22.585 3.51622C20.8143 2.78277 18.9165 2.40527 16.9999 2.40527L16.9999 16.9999H31.5945Z"/>
</mask>
<path d="M31.5945 16.9999C31.5945 15.0833 31.217 13.1855 30.4835 11.4148C29.7501 9.64406 28.675 8.03516 27.3198 6.67993C25.9646 5.3247 24.3557 4.24967 22.585 3.51622C20.8143 2.78277 18.9165 2.40527 16.9999 2.40527L16.9999 16.9999H31.5945Z" fill="white" stroke="#989FB0" stroke-width="4" mask="url(#path-3-inside-2)"/>
</svg>
