<svg width="32" height="33" viewBox="0 0 32 33" fill="none" xmlns="http://www.w3.org/2000/svg">
  <path fill-rule="evenodd" clip-rule="evenodd" d="M21.3333 1.8335H10.6666C5.51199 1.8335 1.33331 6.01217 1.33331 11.1668V21.8335C1.33331 26.9882 5.51199 31.1668 10.6666 31.1668H21.3333C26.488 31.1668 30.6666 26.9882 30.6666 21.8335V11.1668C30.6666 6.01217 26.488 1.8335 21.3333 1.8335ZM3.99998 11.1668C3.99998 7.48493 6.98475 4.50016 10.6666 4.50016H21.3333C25.0152 4.50016 28 7.48493 28 11.1668V21.8335C28 25.5154 25.0152 28.5002 21.3333 28.5002H10.6666C6.98475 28.5002 3.99998 25.5154 3.99998 21.8335V11.1668Z" fill="white"/>
  <path fill-rule="evenodd" clip-rule="evenodd" d="M13.8856 16.2714L11.0572 13.443C10.5365 12.9223 10.5365 12.0781 11.0572 11.5574C11.5779 11.0367 12.4221 11.0367 12.9428 11.5574L15.7712 14.3858L18.5996 11.5574C19.1203 11.0367 19.9646 11.0367 20.4853 11.5574C21.006 12.0781 21.006 12.9223 20.4853 13.443L17.6568 16.2714L20.4853 19.0998C21.006 19.6205 21.006 20.4647 20.4853 20.9854C19.9646 21.5061 19.1203 21.5061 18.5996 20.9854L15.7712 18.157L12.9428 20.9854C12.4221 21.5061 11.5779 21.5061 11.0572 20.9854C10.5365 20.4647 10.5365 19.6205 11.0572 19.0998L13.8856 16.2714Z" fill="white"/>
</svg>
