<svg width="71" height="54" viewBox="0 0 71 54" fill="none" xmlns="http://www.w3.org/2000/svg">
<path fill-rule="evenodd" clip-rule="evenodd" d="M64.6699 0.867188C67.9836 0.867188 70.6699 3.55348 70.6699 6.86719V47.0247C70.6699 50.3384 67.9836 53.0247 64.6699 53.0247H6.50879C3.19508 53.0247 0.508789 50.3384 0.508789 47.0247V6.86719C0.508789 3.55348 3.19508 0.867188 6.50879 0.867188H64.6699ZM24.4782 16.5292C24.4782 15.3786 25.4731 14.4459 26.7004 14.4459H35.5893H39.917C40.1691 14.4459 40.4103 14.5384 40.5849 14.7021L46.4424 20.1936C46.608 20.3488 46.7004 20.5556 46.7004 20.7707V26.9459V37.3625C46.7004 38.5131 45.7055 39.4459 44.4782 39.4459H26.7004C25.4731 39.4459 24.4782 38.5131 24.4782 37.3625V16.5292ZM32.7472 31.311C32.9968 31.573 33.4352 31.6034 33.7264 31.3788C34.0176 31.1541 34.0513 30.7595 33.8017 30.4975L31.4113 27.9875L33.8017 25.4776C34.0513 25.2155 34.0176 24.821 33.7264 24.5964C33.4352 24.3717 32.9968 24.402 32.7472 24.6641L29.9694 27.5808C29.7465 27.8149 29.7465 28.1602 29.9694 28.3943L32.7472 31.311ZM38.4313 31.311C38.1818 31.573 37.7434 31.6034 37.4522 31.3788C37.161 31.1541 37.1273 30.7595 37.3769 30.4975L39.7673 27.9875L37.3769 25.4776C37.1273 25.2155 37.161 24.821 37.4522 24.5964C37.7434 24.3717 38.1818 24.402 38.4313 24.6641L41.2091 27.5808C41.4321 27.8149 41.4321 28.1602 41.2091 28.3943L38.4313 31.311Z" fill="#2A0592"/>
</svg>
