<svg width="15" height="14" viewBox="0 0 15 14" fill="none" xmlns="http://www.w3.org/2000/svg">
<path fill-rule="evenodd" clip-rule="evenodd" d="M10.625 1.88672V1.26172C10.625 0.916541 10.9049 0.636719 11.25 0.636719C11.5952 0.636719 11.875 0.916541 11.875 1.26172V1.88672H12.5C13.5355 1.88672 14.375 2.72618 14.375 3.76172V5.63672V6.88672V10.0117C14.375 12.0828 12.6961 13.7617 10.625 13.7617H4.375C2.30393 13.7617 0.625 12.0828 0.625 10.0117V6.88672V5.63672V3.76172C0.625 2.72618 1.46447 1.88672 2.5 1.88672H3.74996V1.26172C3.74996 0.916541 4.02978 0.636719 4.37496 0.636719C4.72014 0.636719 4.99996 0.916541 4.99996 1.26172V1.88672H10.625ZM1.87496 5.63672H13.125V3.76172C13.125 3.41654 12.8451 3.13672 12.5 3.13672H11.875C11.875 3.4819 11.5952 3.76172 11.25 3.76172C10.9049 3.76172 10.625 3.4819 10.625 3.13672H4.99996C4.99996 3.4819 4.72014 3.76172 4.37496 3.76172C4.02978 3.76172 3.74996 3.4819 3.74996 3.13672H2.49996C2.15478 3.13672 1.87496 3.41654 1.87496 3.76172V5.63672ZM1.87496 6.88672V10.0117C1.87496 11.3924 2.99425 12.5117 4.37496 12.5117H10.625C12.0057 12.5117 13.125 11.3924 13.125 10.0117V6.88672H1.87496Z" fill="#778CA2"/>
</svg>
