<svg width="14" height="14" viewBox="0 0 14 14" fill="none" xmlns="http://www.w3.org/2000/svg">
<path fill-rule="evenodd" clip-rule="evenodd" d="M4.10879 2.18696L4.55684 0.842811C4.64759 0.570583 4.90234 0.386963 5.1893 0.386963H8.7893C9.07625 0.386963 9.33101 0.570583 9.42175 0.842811L9.8698 2.18696H12.9893C13.3575 2.18696 13.6559 2.48544 13.6559 2.85363C13.6559 3.22182 13.3575 3.5203 12.9893 3.5203H12.4179L11.9286 11.8377C11.8665 12.8949 10.991 13.7203 9.93209 13.7203H4.0465C2.98755 13.7203 2.11214 12.8949 2.04996 11.8377L1.5607 3.5203H0.999919C0.631729 3.5203 0.333252 3.22182 0.333252 2.85363C0.333252 2.48544 0.631729 2.18696 0.999919 2.18696H4.10879ZM5.51425 2.18696H8.46435L8.30879 1.7203H5.6698L5.51425 2.18696ZM11.0823 3.5203H2.89633L3.38099 11.7594C3.40172 12.1118 3.69352 12.387 4.0465 12.387H9.93209C10.2851 12.387 10.5769 12.1118 10.5976 11.7594L11.0823 3.5203ZM8.12393 5.21204C8.1469 4.84457 8.46341 4.56529 8.83088 4.58826C9.19836 4.61123 9.47763 4.92774 9.45467 5.29521L9.15467 10.0952C9.1317 10.4627 8.81518 10.742 8.44771 10.719C8.08024 10.696 7.80096 10.3795 7.82393 10.012L8.12393 5.21204ZM6.15467 10.012C6.17763 10.3795 5.89836 10.696 5.53088 10.719C5.16341 10.742 4.8469 10.4627 4.82393 10.0952L4.52393 5.29521C4.50096 4.92774 4.78024 4.61123 5.14771 4.58826C5.51519 4.56529 5.8317 4.84457 5.85467 5.21204L6.15467 10.012Z" fill="currentColor"/>
</svg>
