<svg width="71" height="54" viewBox="0 0 71 54" fill="none" xmlns="http://www.w3.org/2000/svg">
<path fill-rule="evenodd" clip-rule="evenodd" d="M64.1738 0.867188C67.4875 0.867188 70.1738 3.55348 70.1738 6.86719V47.0247C70.1738 50.3384 67.4875 53.0247 64.1738 53.0247H6.0127C2.69899 53.0247 0.0126953 50.3384 0.0126953 47.0247V6.86719C0.0126953 3.55348 2.69899 0.867188 6.01269 0.867188H64.1738ZM23.9819 16.5296C23.9819 15.379 24.9769 14.4463 26.2042 14.4463H35.093H39.4207C39.6729 14.4463 39.9141 14.5388 40.0887 14.7025L45.9462 20.194C46.1117 20.3492 46.2042 20.556 46.2042 20.7712V26.9463V37.363C46.2042 38.5135 45.2092 39.4463 43.9819 39.4463H26.2042C24.9769 39.4463 23.9819 38.5135 23.9819 37.363V16.5296ZM29.769 25.2796C29.769 24.9345 30.0799 24.6546 30.4634 24.6546H38.0392C38.4227 24.6546 38.7336 24.9345 38.7336 25.2796C38.7336 25.6248 38.4227 25.9046 38.0392 25.9046H30.4634C30.0799 25.9046 29.769 25.6248 29.769 25.2796ZM29.769 28.613C29.769 28.2678 30.0799 27.988 30.4634 27.988H39.7227C40.1062 27.988 40.4171 28.2678 40.4171 28.613C40.4171 28.9581 40.1062 29.238 39.7227 29.238H30.4634C30.0799 29.238 29.769 28.9581 29.769 28.613ZM29.769 31.9463C29.769 31.6011 30.0799 31.3213 30.4634 31.3213H39.7227C40.1062 31.3213 40.4171 31.6011 40.4171 31.9463C40.4171 32.2915 40.1062 32.5713 39.7227 32.5713H30.4634C30.0799 32.5713 29.769 32.2915 29.769 31.9463Z" fill="#EF1B81"/>
</svg>
