<svg width="16" height="16" viewBox="0 0 16 16" fill="none" xmlns="http://www.w3.org/2000/svg">
<path d="M0.131078 7.70861L2.04392 5.79577C2.21381 5.62575 2.51143 5.62575 2.68106 5.79577L2.92288 6.03746C3.09849 6.21307 3.09849 6.49482 2.92288 6.6703L2.21159 7.37729H7.37542V2.22361L6.66622 2.94335C6.49633 3.11311 6.20391 3.11311 6.03442 2.94335L5.79507 2.70166C5.61933 2.52592 5.62089 2.24 5.7965 2.06439L7.71233 0.143877C7.79688 0.0595847 7.91031 0.0078125 8.03116 0.0078125H8.0443C8.16501 0.0078125 8.27805 0.0594547 8.36248 0.143877L10.2385 2.02264C10.3234 2.10745 10.3703 2.22179 10.3703 2.34251C10.3703 2.46296 10.3234 2.57691 10.2385 2.66173L9.99681 2.90381C9.82693 3.07356 9.52163 3.07382 9.352 2.90394L8.62459 2.1842V7.37729H13.7947L13.0747 6.66159C12.9898 6.57677 12.943 6.46556 12.943 6.3451C12.943 6.22465 12.9898 6.11226 13.0748 6.0277L13.3166 5.7864C13.4864 5.61678 13.784 5.6173 13.9535 5.78666L15.8688 7.70198C15.9557 7.78887 16.0021 7.90503 15.9999 8.02458C16.0021 8.14867 15.9558 8.26484 15.8689 8.3516L13.9932 10.2278C13.8233 10.3975 13.5255 10.3975 13.3559 10.2278L13.1139 9.98581C13.0293 9.90126 12.9824 9.78795 12.9824 9.6675C12.9824 9.54665 13.0293 9.43231 13.1139 9.34763L13.8339 8.62659H8.62472V13.8309L9.38361 13.08C9.55311 12.9103 9.85477 12.9103 10.0243 13.08L10.2682 13.322C10.3528 13.4065 10.4006 13.5198 10.4006 13.6404C10.4006 13.7609 10.3543 13.8741 10.2696 13.9589L8.36885 15.8599C8.28443 15.9442 8.17152 15.9909 8.0469 15.9909C8.04612 15.9903 8.03909 15.9909 8.03805 15.9909C7.91734 15.9909 7.80417 15.9443 7.71962 15.8599L5.80651 13.9466C5.72196 13.862 5.675 13.7487 5.675 13.6282C5.675 13.5075 5.72183 13.3943 5.80651 13.3096L6.04846 13.0677C6.21809 12.8979 6.50518 12.8979 6.67493 13.0677L7.37542 13.7788V8.62646H2.15969L2.91078 9.37872C2.99572 9.46353 3.04242 9.57748 3.04242 9.69807C3.04242 9.81865 2.99585 9.93195 2.91078 10.0168L2.66883 10.2588C2.49933 10.4287 2.20145 10.4287 2.03195 10.2588L0.131078 8.35797C0.0441837 8.27134 -0.00212479 8.15492 8.67844e-05 8.0355C-0.00225449 7.91141 0.0441837 7.79537 0.131078 7.70861Z" fill="black"/>
</svg>
