<svg width="20" height="20" viewBox="0 0 20 20" fill="none" xmlns="http://www.w3.org/2000/svg">
<path fill-rule="evenodd" clip-rule="evenodd" d="M16.361 6.0961L17.4757 4.98135L15.0187 2.52428L13.9039 3.63904L16.361 6.0961ZM14.9542 7.50288L12.4971 5.04581L3.30565 14.2373L2.74014 17.2599L5.76272 16.6943L14.9542 7.50288ZM18.9419 3.63399C19.686 4.37811 19.686 5.58458 18.9419 6.32871L6.95174 18.3189C6.80989 18.4607 6.62847 18.5564 6.43129 18.5933L1.67816 19.4826C0.990832 19.6112 0.388848 19.0092 0.517444 18.3218L1.40674 13.5687C1.44363 13.3715 1.53928 13.1901 1.68113 13.0483L13.6713 1.05809C14.4154 0.313968 15.6219 0.313968 16.366 1.05809L18.9419 3.63399ZM18.5099 19.5H10.4901C9.16997 19.5 9.16997 17.5 10.4901 17.5H18.5099C19.83 17.5 19.83 19.5 18.5099 19.5Z" fill="currentColor"/>
</svg>
