<svg width="20" height="16" viewBox="0 0 20 16" fill="none" xmlns="http://www.w3.org/2000/svg">
<path fill-rule="evenodd" clip-rule="evenodd" d="M3.3802 0.964478H16.7135C18.0942 0.964478 19.2135 2.08377 19.2135 3.46448V3.82067C19.2136 3.82795 19.2136 3.83522 19.2135 3.84249V12.6311C19.2135 14.0119 18.0942 15.1311 16.7135 15.1311H3.3802C1.99949 15.1311 0.880198 14.0119 0.880198 12.6311V3.84246C0.880103 3.83521 0.880103 3.82796 0.880198 3.8207V3.46448C0.880198 2.08377 1.99949 0.964478 3.3802 0.964478ZM2.54686 5.43285V12.6311C2.54686 13.0914 2.91996 13.4645 3.3802 13.4645H16.7135C17.1738 13.4645 17.5469 13.0914 17.5469 12.6311V5.43285L11.4805 9.6793C10.6197 10.2819 9.47401 10.2819 8.61321 9.6793L2.54686 5.43285ZM17.5444 3.40014L10.5247 8.31391C10.2378 8.51476 9.85591 8.51476 9.56898 8.31391L2.54931 3.40014C2.58216 2.96997 2.94161 2.63114 3.3802 2.63114H16.7135C17.1521 2.63114 17.5116 2.96997 17.5444 3.40014Z" fill="currentColor"/>
</svg>
