<svg width="16" height="16" viewBox="0 0 16 16" fill="none" xmlns="http://www.w3.org/2000/svg">
<path d="M15.996 7.98261V0.705659C15.996 0.31325 15.6831 0.000318608 15.3155 0.000318608H8.00879C7.06999 -0.0245174 7.06999 1.411 8.00879 1.3812H14.6102V7.98261C14.6102 8.37502 14.9231 8.71279 15.3155 8.68795C15.7079 8.68795 16.0209 8.37502 15.996 7.98261Z" fill="black"/>
<path d="M7.98425 14.6184H1.38284V8.01695C1.41264 7.61958 1.0699 7.30664 0.68246 7.30664C0.314887 7.30664 0.00195312 7.61957 0.00195312 8.01198V15.3187C0.00195312 15.6863 0.314887 15.9992 0.707296 15.9992H7.98425C8.92305 16.024 8.92305 14.6184 7.98425 14.6184Z" fill="black"/>
<path d="M10.4128 4.87755C10.229 4.87755 10.0751 4.95703 9.94095 5.08617L5.08799 9.93913C4.40748 10.5898 5.40092 11.6081 6.05163 10.9028L10.9294 6.04981C11.3765 5.60773 11.0635 4.85271 10.4128 4.87755Z" fill="black"/>
</svg>
