<svg width="26" height="28" viewBox="0 0 26 28" fill="none" xmlns="http://www.w3.org/2000/svg">
<path fill-rule="evenodd" clip-rule="evenodd" d="M13.0003 26C20.1788 26 25.998 20.1807 25.998 13.0023C25.998 5.82389 20.1788 0.00463867 13.0003 0.00463867C5.82194 0.00463867 0.00268555 5.82389 0.00268555 13.0023C0.00268555 20.1807 5.82194 26 13.0003 26Z" fill="white"/>
<path fill-rule="evenodd" clip-rule="evenodd" d="M11.9171 27.268C18.4972 27.268 23.8315 21.9337 23.8315 15.3536C23.8315 8.77346 18.4972 3.43921 11.9171 3.43921C5.33694 3.43921 0.00268555 8.77346 0.00268555 15.3536C0.00268555 21.9337 5.33694 27.268 11.9171 27.268Z" fill="#CC0033"/>
<path d="M13.5724 15.3556L16.9423 18.7255C18.0656 19.8488 16.3806 21.5337 15.2573 20.4104L11.8874 17.0405L8.58233 20.3456C7.45903 21.4689 5.77408 19.784 6.89738 18.6607L10.2025 15.3556L6.83257 11.9857C5.70927 10.8624 7.39422 9.17743 8.51752 10.3007L11.8874 13.6706L15.1925 10.3655C16.3158 9.24223 18.0008 10.9272 16.8775 12.0505L13.5724 15.3556Z" fill="white"/>
</svg>
