<svg width="71" height="54" viewBox="0 0 71 54" fill="none" xmlns="http://www.w3.org/2000/svg">
<rect width="70.1611" height="52.1575" rx="6" transform="matrix(-1 0 0 1 70.502 0.867188)" fill="#23A566"/>
<path d="M43.7585 20.6367H27.085C26.4873 20.6367 26.0029 21.0392 26.0029 21.536V33.6032C26.0029 34.0999 26.4873 34.5025 27.085 34.5025H43.7688C44.3665 34.5025 44.8508 34.0999 44.8508 33.6032V21.5445C44.8405 21.0478 44.3562 20.6367 43.7585 20.6367ZM28.167 26.4262H34.3397V28.7129H28.167V26.4262ZM36.5037 26.4262H42.6764V28.7129H36.5037V26.4262ZM42.6764 24.6277H36.5037V22.4438H42.6764V24.6277ZM34.3397 22.4438V24.6277H28.167V22.4438H34.3397ZM28.167 30.52H34.3397V32.7039H28.167V30.52ZM36.5037 32.7039V30.52H42.6764V32.7039H36.5037Z" fill="white"/>
</svg>
