<svg width="44" height="44" viewBox="0 0 44 44" fill="none" xmlns="http://www.w3.org/2000/svg">
<path d="M25.8873 25.8874C25.3838 26.4277 24.7766 26.8611 24.1019 27.1618C23.4273 27.4624 22.699 27.624 21.9605 27.637C21.222 27.6501 20.4884 27.5142 19.8036 27.2376C19.1188 26.961 18.4966 26.5492 17.9744 26.027C17.4521 25.5047 17.0404 24.8826 16.7638 24.1977C16.4871 23.5129 16.3513 22.7794 16.3643 22.0409C16.3773 21.3024 16.539 20.5741 16.8396 19.8994C17.1402 19.2248 17.5736 18.6176 18.114 18.114M32.8907 32.8907C29.7567 35.2795 25.9407 36.6029 22.0007 36.6674C9.16732 36.6674 1.83398 22.0007 1.83398 22.0007C4.11445 17.7508 7.2774 14.0378 11.1107 11.1107L32.8907 32.8907ZM18.1506 7.77403C19.4126 7.47864 20.7046 7.33098 22.0007 7.33403C34.834 7.33403 42.1673 22.0007 42.1673 22.0007C41.0544 24.0826 39.7273 26.0427 38.2073 27.849L18.1506 7.77403Z" stroke="#003B5F" stroke-width="3" stroke-linecap="round" stroke-linejoin="round"/>
<path d="M1.83398 1.83398L42.1673 42.1673" stroke="#003B5F" stroke-width="3" stroke-linecap="round" stroke-linejoin="round"/>
</svg>
