<svg width="32" height="28" viewBox="0 0 32 28" fill="none" xmlns="http://www.w3.org/2000/svg">
<path d="M15.336 1.26227C15.6898 0.47615 16.806 0.476149 17.1598 1.26227L20.6994 9.12704C20.8538 9.4701 21.1877 9.69747 21.5634 9.71548L31.0287 10.1691C31.9803 10.2147 32.3352 11.439 31.5554 11.9864L24.4524 16.9726C24.0978 17.2215 23.9438 17.6705 24.071 18.0847L26.4566 25.852C26.7209 26.7127 25.8023 27.4569 25.0152 27.0199L16.7334 22.4209C16.4314 22.2533 16.0644 22.2533 15.7624 22.4209L7.48059 27.0199C6.69347 27.4569 5.77485 26.7127 6.03918 25.852L8.42475 18.0847C8.55195 17.6705 8.39797 17.2215 8.04337 16.9726L0.940375 11.9864C0.160612 11.439 0.515439 10.2147 1.46706 10.1691L10.9324 9.71548C11.3081 9.69747 11.642 9.4701 11.7964 9.12704L15.336 1.26227Z" fill="#F2994A"/>
</svg>
