<svg width="16" height="18" viewBox="0 0 16 18" fill="none" xmlns="http://www.w3.org/2000/svg">
<path fill-rule="evenodd" clip-rule="evenodd" d="M3.5 0.414062H10.6487C11.0939 0.414062 11.5161 0.622782 11.8011 0.98377L15.1523 5.22873C15.377 5.51328 15.5 5.87195 15.5 6.24235V14.6641C15.5 16.413 14.1569 17.8307 12.5 17.8307H3.5C1.84315 17.8307 0.5 16.413 0.5 14.6641V3.58073C0.5 1.83183 1.84315 0.414063 3.5 0.414062ZM14 14.6641V6.7474H11.75C10.9216 6.7474 10.25 6.03851 10.25 5.16406V1.9974H3.5C2.67157 1.9974 2 2.70628 2 3.58073V14.6641C2 15.5385 2.67157 16.2474 3.5 16.2474H12.5C13.3284 16.2474 14 15.5385 14 14.6641ZM13.1487 5.16406L11.75 3.39235V5.16406H13.1487ZM5 10.7057C4.58579 10.7057 4.25 10.3513 4.25 9.91406C4.25 9.47684 4.58579 9.1224 5 9.1224H11C11.4142 9.1224 11.75 9.47684 11.75 9.91406C11.75 10.3513 11.4142 10.7057 11 10.7057H5ZM5 13.8724C4.58579 13.8724 4.25 13.518 4.25 13.0807C4.25 12.6435 4.58579 12.2891 5 12.2891H9.5C9.91421 12.2891 10.25 12.6435 10.25 13.0807C10.25 13.518 9.91421 13.8724 9.5 13.8724H5ZM5 7.53906C4.58579 7.53906 4.25 7.18462 4.25 6.7474C4.25 6.31017 4.58579 5.95573 5 5.95573H7.25C7.66421 5.95573 8 6.31017 8 6.7474C8 7.18462 7.66421 7.53906 7.25 7.53906H5Z" fill="#92929D"/>
</svg>
