<svg width="72" height="54" viewBox="0 0 72 54" fill="none" xmlns="http://www.w3.org/2000/svg">
<path d="M21.4542 18.8137L34.9305 12.3077H31.1231L25.3618 7.28729C25.1113 7.03118 24.7606 6.92871 24.4099 6.92871H14.9414C14.0897 6.92871 13.4385 7.59469 13.4385 8.46551V18.8137H21.4542Z" fill="#50B5FF"/>
<path d="M53.0165 18.8117H57.1246V13.8425C57.1246 12.9715 56.4733 12.3057 55.6217 12.3057H50.0107L53.0165 18.8117Z" fill="#50B5FF"/>
<path d="M48.1578 7.64589C47.757 6.77497 46.705 6.3652 45.8032 6.82625L20.3535 19.1211H53.4181L48.1578 7.64589Z" fill="#D4E1F4"/>
<path d="M58.7277 19.0187C58.4271 18.7113 58.0263 18.5576 57.6255 18.5576H57.1246H53.0165H21.4549H13.4392H12.9382C12.5374 18.5576 12.1367 18.7113 11.8361 19.0187C11.5355 19.3261 11.3852 19.7358 11.4353 20.1457L12.9382 48.0139C12.9882 48.8335 13.6395 49.4483 14.441 49.4483H56.1225C56.9241 49.4483 57.5754 48.8336 57.6254 48.0139L59.1284 20.1457C59.1284 19.7358 58.9781 19.326 58.7277 19.0187Z" fill="#2196F3"/>
</svg>
