<svg width="22" height="19" viewBox="0 0 22 19" fill="none" xmlns="http://www.w3.org/2000/svg">
<path fill-rule="evenodd" clip-rule="evenodd" d="M4.07234 0.517319H17.4015C19.5603 0.517319 21.3157 2.16843 21.3157 4.21148V14.9581C21.3157 17.0012 19.5603 18.6523 17.4015 18.6523H4.07234C1.91354 18.6523 0.158203 17.0012 0.158203 14.9581V4.21148C0.158203 2.16843 1.91354 0.517319 4.07234 0.517319ZM4.07234 2.53232C3.07619 2.53232 2.27395 3.28693 2.27395 4.21148V14.9581C2.27395 15.8827 3.07619 16.6373 4.07234 16.6373H17.4015C18.3977 16.6373 19.1999 15.8827 19.1999 14.9581V4.21148C19.1999 3.28693 18.3977 2.53232 17.4015 2.53232H4.07234Z" fill="#92929D"/>
<path fill-rule="evenodd" clip-rule="evenodd" d="M4.07234 0.515625H7.40154C9.56034 0.515625 11.3157 2.16674 11.3157 4.20979V4.95644C11.3157 6.99949 9.56034 8.6506 7.40154 8.6506H4.07234C1.91354 8.6506 0.158203 6.99949 0.158203 4.95644V4.20979C0.158203 2.16674 1.91354 0.515625 4.07234 0.515625ZM4.07234 2.53062C3.07619 2.53062 2.27395 3.28523 2.27395 4.20979V4.95644C2.27395 5.881 3.07619 6.6356 4.07234 6.6356H7.40154C8.39769 6.6356 9.19993 5.881 9.19993 4.95644V4.20979C9.19993 3.28523 8.39769 2.53062 7.40154 2.53062H4.07234Z" fill="#92929D"/>
</svg>
