<svg width="107" height="172" viewBox="0 0 107 172" fill="none" xmlns="http://www.w3.org/2000/svg">
<path d="M96.8714 106.833C96.8714 106.833 85.667 109.662 82.7076 98.3734L85.758 93.9134C85.758 93.9134 94.3507 95.3688 96.1056 96.4614C96.1056 96.4614 98.2621 107.738 100.766 111.012C100.903 111.195 101.462 111.427 101.714 111.252C102.049 111.024 102.343 110.575 101.925 109.748C101.925 109.748 96.4492 96.7305 97.2811 92.6373C97.2811 92.6373 97.1404 90.7946 95.3399 88.6787C93.5394 86.5628 92.1529 76.0486 92.1529 76.0486C92.1529 76.0486 93.4691 73.044 93.5394 72.2939C93.6098 71.5437 92.5916 61.2375 76.052 51.0413L73.2788 42.1212L78.0843 33.5639L75.8699 32.7159C11.425 28.423 19.6907 92.2785 19.6907 92.2785L26.0648 91.4591C25.6012 82.2658 28.0515 80.3538 28.0515 80.3538C26.1103 92.5028 32.6252 101.517 32.6252 101.517C40.3859 112.3 34.703 123.222 34.703 123.222C37.3354 124.999 53.5522 121.448 46.76 116.67C39.9678 111.892 43.4322 105.647 44.5415 104.656C45.6507 103.665 48.4239 102.348 52.7906 104.395C57.1573 106.446 53.3204 120.368 60.7458 123.234C68.1754 126.1 106.428 150.06 106.428 150.06C106.428 150.06 93.1297 134.869 96.8714 106.833ZM22.9233 68.8856C22.9233 68.8856 23.3868 57.6906 35.121 46.4956C35.121 46.4956 24.2188 61.1478 22.9233 68.8856ZM47.0415 52.6394C58.13 45.1299 73.3078 49.5655 73.3078 49.5655L71.23 41.579L75.3194 33.1155L77.331 33.7311L72.7573 42.1946L76.0851 52.6394C59.6531 46.2225 47.0415 52.6394 47.0415 52.6394ZM52.7409 95.9803C52.5836 96.1149 52.4926 96.1882 52.4926 96.1882C52.5547 96.1312 52.6374 96.0619 52.7409 95.9803C54.3965 94.582 64.1647 86.4283 70.7913 83.2647C78.3202 79.6689 90.4476 73.6066 91.7679 71.7068C91.7679 71.7068 89.9674 76.4849 81.975 80.3538C74.4709 83.9822 55.6093 93.7544 52.7409 95.9803ZM94.5121 90.3869C95.1992 90.5174 94.9301 89.9017 94.628 89.543C94.628 89.543 96.474 91.455 95.0916 92.4538C93.705 93.4567 90.1951 89.0864 78.552 92.4538C78.552 92.4579 84.984 88.5809 94.5121 90.3869ZM93.7961 110.204C93.7961 110.204 81.8756 110.115 81.321 99.8289C81.321 99.8289 83.7382 110.025 95.6048 108.476C95.6048 108.476 94.9053 113.026 94.9053 115.484C94.9053 115.484 93.6139 112.757 93.7961 110.204ZM95.6048 130.686C95.6048 130.686 97.4012 139.88 102.761 146.252C102.761 146.248 95.8449 142.334 95.6048 130.686Z" fill="white"/>
<path d="M7.68389 42.8797C7.68389 42.8797 15.1673 39.3328 25.3535 43.8092C25.3535 43.8092 8.92974 42.1132 2.69221 57.6908C2.69221 57.6908 7.89084 52.285 12.8784 52.6396C12.8784 52.6396 2.43145 58.7304 0.40332 67.9441C0.40332 67.9441 1.37599 62.0979 12.8784 60.5569C12.8784 60.5569 -0.842531 66.7129 1.65331 82.2783C1.65331 82.2783 2.48526 78.5928 8.30475 74.6994C8.30475 74.6994 1.23527 82.7756 1.23527 99.8291C1.23527 116.882 21.8187 152.922 10.8006 166.644C10.8006 166.644 24.9851 158.919 7.26585 115.484C7.26585 115.484 30.966 141.865 12.0464 171.557C12.0464 171.557 34.3641 156.334 15.5812 117.906C15.5812 117.906 2.89916 97.5012 18.4909 85.9963C18.4909 85.9963 12.2451 26.2176 77.3232 31.2892C77.3232 31.2892 83.9788 19.8211 101.028 20.4367C101.028 20.4367 99.8065 12.0425 88.4614 5.48692C88.4614 5.48692 79.6121 7.19104 74.8315 17.6033C74.8315 17.6033 73.3746 12.0425 83.7719 3.85211C83.7719 3.85211 64.7778 -4.33826 47.0379 4.67155C47.0379 4.67155 42.5305 9.79206 47.0379 19.2096C47.0379 19.2096 36.9924 16.3435 42.1911 5.28308C42.1911 5.28308 34.0123 15.4793 40.9452 24.9416C40.9452 24.9416 30.134 21.0686 36.5785 7.12581C36.5827 7.12581 14.9603 17.8112 7.68389 42.8797Z" fill="white"/>
<path d="M18.6272 87.7249V91.2839C18.6272 91.2839 12.667 101.195 21.4004 111.342C28.027 119.043 28.7472 137.462 26.2514 146.248C26.2514 146.248 27.7787 125.843 16.6405 113.299C13.4658 109.723 9.2026 95.0999 18.6272 87.7249Z" fill="white"/>
</svg>
