<svg width="16" height="16" viewBox="0 0 16 16" fill="none" xmlns="http://www.w3.org/2000/svg">
<path d="M15.2668 12.9992V7.02846C15.2668 6.38256 14.9549 5.77642 14.4293 5.40099L9.42932 1.82956C8.73393 1.33285 7.79976 1.33285 7.10437 1.82956L2.10437 5.40099C1.57878 5.77642 1.26685 6.38256 1.26685 7.02846V12.9992C1.26685 14.1038 2.16228 14.9992 3.26685 14.9992H5.26685C5.81913 14.9992 6.26685 14.5515 6.26685 13.9992V10.9992C6.26685 10.4469 6.71456 9.99922 7.26685 9.99922H9.26685C9.81913 9.99922 10.2668 10.4469 10.2668 10.9992V13.9992C10.2668 14.5515 10.7146 14.9992 11.2668 14.9992H13.2668C14.3714 14.9992 15.2668 14.1038 15.2668 12.9992Z" stroke="#B5B8CB" stroke-linecap="round" stroke-linejoin="round"/>
</svg>
