<svg width="20" height="20" viewBox="0 0 20 20" fill="none" xmlns="http://www.w3.org/2000/svg">
<path fill-rule="evenodd" clip-rule="evenodd" d="M16 8.00596L10 2.60596L4.00001 8.00596V17.1111C4.00001 17.4793 4.29848 17.7778 4.66667 17.7778H6.22223V15.3063C6.22223 13.7232 7.51803 12.4444 9.11111 12.4444H10.8889C12.482 12.4444 13.7778 13.7232 13.7778 15.3063V17.7778H15.3333C15.7015 17.7778 16 17.4793 16 17.1111V8.00596ZM18.2222 17.1111C18.2222 18.7066 16.9288 20 15.3333 20H12.6667C12.053 20 11.5556 19.5025 11.5556 18.8889V15.3063C11.5556 14.9564 11.2603 14.6667 10.8889 14.6667H9.11111C8.73968 14.6667 8.44444 14.9564 8.44444 15.3063V18.8889C8.44444 19.5025 7.94698 20 7.33333 20H4.66667C3.07118 20 1.77778 18.7066 1.77778 17.1111V10.0001C1.32263 10.3422 0.67339 10.2857 0.285238 9.85441C-0.125272 9.39828 -0.0882956 8.69574 0.367826 8.28523L9.25671 0.285229C9.67927 -0.0950762 10.3207 -0.0950762 10.7433 0.285229L19.6322 8.28523C20.0883 8.69574 20.1253 9.39828 19.7148 9.85441C19.3266 10.2857 18.6774 10.3422 18.2222 10.0001V17.1111Z" fill="currentColor"/>
</svg>

