  <svg
                    width="30"
                    height="17"
                    viewBox="0 0 30 17"
                    fill="none"
                    xmlns="http://www.w3.org/2000/svg"
                  >
                    <path
                      d="M27.8906 9.5602C28.5042 9.5602 29.0016 9.0628 29.0016 8.44922C29.0016 7.83564 28.5042 7.33823 27.8906 7.33823V9.5602ZM0.489981 7.66363C0.0561142 8.0975 0.0561142 8.80094 0.489981 9.2348L7.56024 16.3051C7.9941 16.7389 8.69754 16.7389 9.13141 16.3051C9.56527 15.8712 9.56527 15.1678 9.13141 14.7339L2.84673 8.44922L9.13141 2.16455C9.56527 1.73068 9.56527 1.02724 9.13141 0.593377C8.69754 0.159511 7.9941 0.159511 7.56024 0.593377L0.489981 7.66363ZM27.8906 7.33823L1.27556 7.33823V9.5602L27.8906 9.5602V7.33823Z"
                      fill="#003B5F"
                    />
                  </svg>
