<svg width="20" height="22" viewBox="0 0 20 22" fill="none" xmlns="http://www.w3.org/2000/svg">
<path fill-rule="evenodd" clip-rule="evenodd" d="M9.53287 16.7401C8.5531 17.6647 7.0091 17.6475 6.05023 16.6887C5.07392 15.7124 5.07392 14.1294 6.05023 13.1531L13.8284 5.37496C14.0237 5.1797 14.3402 5.1797 14.5355 5.37496C14.7308 5.57022 14.7308 5.88681 14.5355 6.08207L6.75733 13.8602C6.17155 14.446 6.17155 15.3958 6.75733 15.9816C7.34312 16.5674 8.29287 16.5674 8.87865 15.9816L16.6568 8.20339C18.0237 6.83655 18.0237 4.62048 16.6568 3.25364C15.29 1.88681 13.0739 1.88681 11.7071 3.25364L3.92891 11.0318C1.78102 13.1797 1.78102 16.6621 3.92891 18.81C6.07679 20.9579 9.5592 20.9579 11.7071 18.81L18.071 12.446C18.2663 12.2508 18.5829 12.2508 18.7781 12.446C18.9734 12.6413 18.9734 12.9579 18.7781 13.1531L12.4142 19.5171C9.87578 22.0555 5.76021 22.0555 3.2218 19.5171C0.700793 16.9961 0.683511 12.9195 3.16995 10.3771L11 2.54654C12.7573 0.789176 15.6066 0.789176 17.3639 2.54654C19.1213 4.30389 19.1213 7.15314 17.3639 8.9105L9.53362 16.7408L9.53287 16.7401Z" fill="#92929D" stroke="#00B5E2"/>
</svg>
