<svg width="20" height="20" viewBox="0 0 20 20" fill="none" xmlns="http://www.w3.org/2000/svg">
<g clip-path="url(#clip0)">
<path d="M11.7675 0.73223C12.7438 1.70854 12.7438 3.29145 11.7675 4.26776C10.7912 5.24407 9.20826 5.24407 8.23195 4.26776C7.25565 3.29145 7.25565 1.70854 8.23195 0.73223C9.20822 -0.244077 10.7911 -0.244077 11.7675 0.73223Z" fill="white"/>
<path d="M11.7675 8.23223C12.7438 9.20853 12.7438 10.7914 11.7675 11.7678C10.7912 12.7441 9.20826 12.7441 8.23195 11.7678C7.25565 10.7914 7.25565 9.20853 8.23195 8.23223C9.20822 7.25592 10.7911 7.25592 11.7675 8.23223Z" fill="white"/>
<path d="M11.7675 15.7322C12.7438 16.7085 12.7438 18.2915 11.7675 19.2678C10.7912 20.2441 9.20826 20.2441 8.23195 19.2678C7.25565 18.2915 7.25565 16.7085 8.23195 15.7322C9.20822 14.7559 10.7911 14.7559 11.7675 15.7322Z" fill="white"/>
</g>
<defs>
<clipPath id="clip0">
<rect width="20" height="20" fill="white"/>
</clipPath>
</defs>
</svg>
