<svg width="4" height="19" viewBox="0 0 4 19" fill="none" xmlns="http://www.w3.org/2000/svg">
<path fill-rule="evenodd" clip-rule="evenodd" d="M2 14.0369C0.895431 14.0369 0 14.9323 0 16.0369C0 17.1414 0.895431 18.0369 2 18.0369C3.10457 18.0369 4 17.1414 4 16.0369C4 14.9323 3.10457 14.0369 2 14.0369Z" fill="#778CA2"/>
<path fill-rule="evenodd" clip-rule="evenodd" d="M2 7.03687C0.895431 7.03687 0 7.9323 0 9.03687C0 10.1414 0.895431 11.0369 2 11.0369C3.10457 11.0369 4 10.1414 4 9.03687C4 7.9323 3.10457 7.03687 2 7.03687Z" fill="#778CA2"/>
<path fill-rule="evenodd" clip-rule="evenodd" d="M2 0.0368652C0.895431 0.0368652 0 0.932297 0 2.03687C0 3.14143 0.895431 4.03687 2 4.03687C3.10457 4.03687 4 3.14143 4 2.03687C4 0.932297 3.10457 0.0368652 2 0.0368652Z" fill="#778CA2"/>
</svg>
