<svg width="25" height="25" viewBox="0 0 25 25" fill="none" xmlns="http://www.w3.org/2000/svg">
<path fill-rule="evenodd" clip-rule="evenodd" d="M7.64941 12.126C7.64941 11.0214 6.75398 10.126 5.64941 10.126C4.54484 10.126 3.64941 11.0214 3.64941 12.126C3.64941 13.2305 4.54484 14.126 5.64941 14.126C6.75398 14.126 7.64941 13.2305 7.64941 12.126Z" fill="#92929D"/>
<path fill-rule="evenodd" clip-rule="evenodd" d="M14.6494 12.126C14.6494 11.0214 13.754 10.126 12.6494 10.126C11.5448 10.126 10.6494 11.0214 10.6494 12.126C10.6494 13.2305 11.5448 14.126 12.6494 14.126C13.754 14.126 14.6494 13.2305 14.6494 12.126Z" fill="#92929D"/>
<path fill-rule="evenodd" clip-rule="evenodd" d="M21.6494 12.126C21.6494 11.0214 20.754 10.126 19.6494 10.126C18.5448 10.126 17.6494 11.0214 17.6494 12.126C17.6494 13.2305 18.5448 14.126 19.6494 14.126C20.754 14.126 21.6494 13.2305 21.6494 12.126Z" fill="#92929D"/>
</svg>
