<svg width="16" height="19" viewBox="0 0 16 19" fill="none" xmlns="http://www.w3.org/2000/svg">
<path fill-rule="evenodd" clip-rule="evenodd" d="M3.51093 5.32353C3.51093 2.65957 5.62897 0.5 8.2417 0.5C10.8544 0.5 12.9725 2.65957 12.9725 5.32353C12.9725 6.99625 12.1374 8.4701 10.8691 9.33533C13.7154 10.4209 15.7417 13.2192 15.7417 16.5V18.5H0.741699V16.5C0.741699 13.2192 2.76804 10.4209 5.61427 9.33533C4.346 8.4701 3.51093 6.99625 3.51093 5.32353ZM8.2417 8.02941C9.70738 8.02941 10.8955 6.81795 10.8955 5.32353C10.8955 3.82911 9.70738 2.61765 8.2417 2.61765C6.77602 2.61765 5.58785 3.82911 5.58785 5.32353C5.58785 6.81795 6.77602 8.02941 8.2417 8.02941ZM8.2417 10.9706C5.28517 10.9706 2.88123 13.3829 2.81983 16.3824H13.6636C13.6022 13.3829 11.1982 10.9706 8.2417 10.9706Z" fill="#92929D"/>
</svg>
