<svg width="14" height="18" viewBox="0 0 14 18" fill="none" xmlns="http://www.w3.org/2000/svg">
<path fill-rule="evenodd" clip-rule="evenodd" d="M2.90158 6.54971V5.02508C2.90158 2.68306 4.78125 0.779938 7.10566 0.779938C9.43008 0.779938 11.3098 2.68306 11.3098 5.02508V6.54971H12.4997C13.1761 6.54971 13.7136 7.10462 13.7136 7.77637V16.2199C13.7136 16.8917 13.1761 17.4466 12.4997 17.4466H1.59414C0.917779 17.4466 0.380249 16.8917 0.380249 16.2199V7.77637C0.380249 7.10462 0.917779 6.54971 1.59414 6.54971H2.90158ZM1.89924 8.06486V15.9315H12.1946V8.06486H1.89924ZM9.79076 6.52637V5.02508C9.79076 3.51484 8.58605 2.29509 7.10566 2.29509C5.62528 2.29509 4.42057 3.51484 4.42057 5.02508V6.52637H9.79076Z" fill="currentColor"/>
</svg>
