<svg width="71" height="54" viewBox="0 0 71 54" fill="none" xmlns="http://www.w3.org/2000/svg">
<path fill-rule="evenodd" clip-rule="evenodd" d="M64.3418 0.867188C67.6555 0.867188 70.3418 3.55348 70.3418 6.86719V47.0247C70.3418 50.3384 67.6555 53.0247 64.3418 53.0247H6.18066C2.86696 53.0247 0.180664 50.3384 0.180664 47.0247V6.86719C0.180664 3.55348 2.86695 0.867188 6.18066 0.867188H64.3418ZM24.1499 16.5296C24.1499 15.379 25.1448 14.4463 26.3721 14.4463H39.5886C39.8408 14.4463 40.082 14.5389 40.2567 14.7025L46.1142 20.1941C46.2796 20.3492 46.3721 20.556 46.3721 20.7712V37.363C46.3721 38.5135 45.3772 39.4463 44.1499 39.4463H26.3721C25.1448 39.4463 24.1499 38.5135 24.1499 37.363V16.5296ZM40.7214 30.3954C40.2413 29.5342 38.1506 29.4498 37.066 29.4715C36.4256 28.8864 35.6732 28.1427 35.1127 27.4185C35.7167 25.8203 35.8608 24.7528 35.5409 24.2435C35.1387 23.6033 34.5834 23.5308 34.1978 23.6762C33.5246 23.9301 33.073 24.9666 33.5617 26.3873C33.6845 26.7441 33.902 27.1282 34.176 27.5178C33.8315 28.3779 33.3932 29.2825 32.9319 30.0985C31.8319 30.4333 30.5829 30.9921 29.9268 31.8947C29.6686 32.25 29.6342 32.6905 29.8346 33.0735C30.163 33.7007 30.884 33.8698 31.7469 33.0985C32.0573 32.821 32.3973 32.4241 32.7573 31.9186C33.0117 31.5615 33.272 31.1548 33.5279 30.7184C34.5288 30.4461 35.6665 30.2831 36.7206 30.2357C37.3017 30.7539 37.7436 31.1047 37.804 31.1523C38.2709 31.5295 39.028 31.9146 39.6798 31.8467C40.0536 31.8077 40.3707 31.6307 40.5969 31.3348C40.923 30.9082 40.8149 30.5631 40.7214 30.3954ZM32.0673 31.4776C31.1675 32.7515 30.7362 32.8523 30.6794 32.8598C30.6681 32.8506 30.6394 32.823 30.6045 32.7565C30.5286 32.6113 30.5422 32.4375 30.6402 32.3026C30.9579 31.8656 31.5287 31.4682 32.2982 31.1391C32.2209 31.2562 32.1438 31.3693 32.0673 31.4776ZM34.5366 24.3673C34.5382 24.3671 34.5398 24.367 34.5415 24.367C34.5892 24.367 34.6953 24.4441 34.7994 24.61C34.8971 24.7656 34.9221 25.3354 34.5336 26.5365C34.4684 26.4098 34.4145 26.2866 34.3736 26.1676C34.0014 25.0859 34.3347 24.4426 34.5301 24.369C34.532 24.3681 34.5342 24.3676 34.5366 24.3673ZM34.0265 29.8187C34.2914 29.3137 34.5425 28.79 34.7662 28.2728C35.1425 28.7139 35.5599 29.1443 35.9618 29.5324C35.3069 29.5905 34.6481 29.6874 34.0265 29.8187ZM39.8943 30.9124C39.7812 31.0604 39.6678 31.0898 39.5816 31.099C39.1624 31.1435 38.5541 30.7395 38.3745 30.595L38.37 30.5913C38.3625 30.5855 38.1968 30.4543 37.9361 30.2346L37.9637 30.2361C39.2636 30.3015 39.87 30.5667 39.9605 30.729C39.9863 30.7753 39.9387 30.8543 39.8943 30.9124Z" fill="#FF0000"/>
</svg>
