<svg width="16" height="19" viewBox="0 0 16 19" fill="none" xmlns="http://www.w3.org/2000/svg">
<path d="M0.113281 4.2793C0.113281 3.23242 0.453125 2.38477 1.13281 1.73633C1.8125 1.08008 2.70312 0.751953 3.80469 0.751953C4.92188 0.751953 5.82031 1.07617 6.5 1.72461C7.17969 2.36523 7.51953 3.23633 7.51953 4.33789V5.18164C7.51953 6.23633 7.17969 7.08398 6.5 7.72461C5.82031 8.36523 4.92969 8.68555 3.82812 8.68555C2.71875 8.68555 1.82031 8.36523 1.13281 7.72461C0.453125 7.07617 0.113281 6.20508 0.113281 5.11133V4.2793ZM2.36328 5.18164C2.36328 5.65039 2.49609 6.0293 2.76172 6.31836C3.03516 6.59961 3.39062 6.74023 3.82812 6.74023C4.26562 6.74023 4.61328 6.5957 4.87109 6.30664C5.12891 6.01758 5.25781 5.63086 5.25781 5.14648V4.2793C5.25781 3.81055 5.12891 3.43164 4.87109 3.14258C4.61328 2.85352 4.25781 2.70898 3.80469 2.70898C3.375 2.70898 3.02734 2.85352 2.76172 3.14258C2.49609 3.42383 2.36328 3.81836 2.36328 4.32617V5.18164ZM8.26953 13.877C8.26953 12.8223 8.61328 11.9746 9.30078 11.334C9.98828 10.6855 10.8789 10.3613 11.9727 10.3613C13.082 10.3613 13.9766 10.6816 14.6562 11.3223C15.3438 11.9551 15.6875 12.8301 15.6875 13.9473V14.791C15.6875 15.8379 15.3516 16.6855 14.6797 17.334C14.0078 17.9746 13.1133 18.2949 11.9961 18.2949C10.8711 18.2949 9.96875 17.9707 9.28906 17.3223C8.60938 16.6738 8.26953 15.8145 8.26953 14.7441V13.877ZM10.5195 14.791C10.5195 15.2207 10.6602 15.5879 10.9414 15.8926C11.2227 16.1973 11.5742 16.3496 11.9961 16.3496C12.9492 16.3496 13.4258 15.8223 13.4258 14.7676V13.877C13.4258 13.4082 13.293 13.0332 13.0273 12.752C12.7617 12.4629 12.4102 12.3184 11.9727 12.3184C11.5352 12.3184 11.1836 12.4629 10.918 12.752C10.6523 13.0332 10.5195 13.4199 10.5195 13.9121V14.791ZM4.49609 16.7832L2.84375 15.8926L11.1758 2.55664L12.8281 3.44727L4.49609 16.7832Z" fill="#778CA2"/>
</svg>
