<svg width="22" height="22" viewBox="0 0 22 22" fill="none" xmlns="http://www.w3.org/2000/svg">
<path fill-rule="evenodd" clip-rule="evenodd" d="M16 2.57031V1.57031C16 1.01803 16.4477 0.570312 17 0.570312C17.5523 0.570312 18 1.01803 18 1.57031V2.57031H19C20.6569 2.57031 22 3.91346 22 5.57031V8.57031V10.5703V15.5703C22 18.884 19.3137 21.5703 16 21.5703H6C2.68629 21.5703 0 18.884 0 15.5703V10.5703V8.57031V5.57031C0 3.91346 1.34315 2.57031 3 2.57031H5V1.57031C5 1.01803 5.44772 0.570312 6 0.570312C6.55228 0.570312 7 1.01803 7 1.57031V2.57031H16ZM2 8.57031H20V5.57031C20 5.01803 19.5523 4.57031 19 4.57031H18C18 5.1226 17.5523 5.57031 17 5.57031C16.4477 5.57031 16 5.1226 16 4.57031H7C7 5.1226 6.55228 5.57031 6 5.57031C5.44772 5.57031 5 5.1226 5 4.57031H3C2.44772 4.57031 2 5.01803 2 5.57031V8.57031ZM2 10.5703V15.5703C2 17.7795 3.79086 19.5703 6 19.5703H16C18.2091 19.5703 20 17.7795 20 15.5703V10.5703H2Z" fill="#92929D"/>
</svg>
