<svg width="56" height="56" viewBox="0 0 56 56" fill="none" xmlns="http://www.w3.org/2000/svg">
<path fill-rule="evenodd" clip-rule="evenodd" d="M28 56C43.464 56 56 43.464 56 28C56 12.536 43.464 0 28 0C12.536 0 0 12.536 0 28C0 43.464 12.536 56 28 56Z" fill="white"/>
<path fill-rule="evenodd" clip-rule="evenodd" d="M28.0001 51.3342C40.8867 51.3342 51.3334 40.8875 51.3334 28.0008C51.3334 15.1142 40.8867 4.66748 28.0001 4.66748C15.1134 4.66748 4.66675 15.1142 4.66675 28.0008C4.66675 40.8875 15.1134 51.3342 28.0001 51.3342Z" fill="#00B5E2"/>
<path d="M30.2735 30.3333V39.6667C30.2735 42.7778 25.6068 42.7778 25.6068 39.6667V30.3333H16.453C13.3419 30.3333 13.3419 25.6667 16.453 25.6667H25.6068V16.3333C25.6068 13.2222 30.2735 13.2222 30.2735 16.3333V25.6667H39.4273C42.5384 25.6667 42.5384 30.3333 39.4273 30.3333H30.2735Z" fill="white"/>
</svg>
