<svg width="71" height="54" viewBox="0 0 71 54" fill="none" xmlns="http://www.w3.org/2000/svg">
<path fill-rule="evenodd" clip-rule="evenodd" d="M64.8379 0.867188C68.1516 0.867188 70.8379 3.55348 70.8379 6.86719V47.0247C70.8379 50.3384 68.1516 53.0247 64.8379 53.0247H6.67676C3.36305 53.0247 0.676758 50.3384 0.676758 47.0247V6.86719C0.676758 3.55348 3.36305 0.867188 6.67676 0.867188H64.8379ZM24.6464 16.5293C24.6464 15.3787 25.6413 14.4459 26.8686 14.4459H35.7575H40.0852C40.3373 14.4459 40.5785 14.5385 40.7531 14.7022L46.6106 20.1937C46.7762 20.3489 46.8686 20.5557 46.8686 20.7708V26.9459V37.3626C46.8686 38.5132 45.8737 39.4459 44.6464 39.4459H26.8686C25.6413 39.4459 24.6464 38.5132 24.6464 37.3626V16.5293ZM29.0396 31.0663C29.0742 31.0974 29.1162 31.1129 29.1656 31.1129H29.8693C29.9236 31.1129 29.9656 31.0974 29.9952 31.0663C30.0298 31.0352 30.047 30.9974 30.047 30.9529V29.3929H31.1507C31.7483 29.3929 32.215 29.2707 32.5507 29.0263C32.8915 28.7774 33.0618 28.4107 33.0618 27.9263C33.0618 27.4419 32.8915 27.0752 32.5507 26.8263C32.21 26.5729 31.7433 26.4463 31.1507 26.4463H29.1656C29.1112 26.4463 29.0668 26.4619 29.0322 26.4929C29.0026 26.524 28.9878 26.564 28.9878 26.6129V30.9529C28.9878 30.9974 29.0051 31.0352 29.0396 31.0663ZM31.773 28.4729C31.6199 28.5929 31.4002 28.6529 31.1137 28.6529H30.0322V27.1863H31.1137C31.41 27.1863 31.6322 27.2529 31.7804 27.3863C31.9285 27.5152 32.0026 27.6952 32.0026 27.9263C32.0026 28.1663 31.9261 28.3485 31.773 28.4729ZM34.1447 31.0663C34.1792 31.0974 34.2212 31.1129 34.2706 31.1129H34.9743C35.0286 31.1129 35.0706 31.0974 35.1003 31.0663C35.1348 31.0352 35.1521 30.9974 35.1521 30.9529V29.3929H36.2558C36.8533 29.3929 37.32 29.2707 37.6558 29.0263C37.9966 28.7774 38.1669 28.4107 38.1669 27.9263C38.1669 27.4419 37.9966 27.0752 37.6558 26.8263C37.3151 26.5729 36.8484 26.4463 36.2558 26.4463H34.2706C34.2163 26.4463 34.1718 26.4619 34.1373 26.4929C34.1077 26.524 34.0929 26.564 34.0929 26.6129V30.9529C34.0929 30.9974 34.1101 31.0352 34.1447 31.0663ZM36.878 28.4729C36.7249 28.5929 36.5052 28.6529 36.2188 28.6529H35.1373V27.1863H36.2188C36.5151 27.1863 36.7373 27.2529 36.8855 27.3863C37.0336 27.5152 37.1077 27.6952 37.1077 27.9263C37.1077 28.1663 37.0311 28.3485 36.878 28.4729ZM40.5164 31.1129C40.467 31.1129 40.425 31.0974 40.3904 31.0663C40.3559 31.0352 40.3386 30.9974 40.3386 30.9529V27.2663H38.9682C38.9189 27.2663 38.8768 27.2507 38.8423 27.2196C38.8078 27.1885 38.7905 27.1507 38.7905 27.1063V26.6129C38.7905 26.564 38.8053 26.524 38.8349 26.4929C38.8694 26.4619 38.9139 26.4463 38.9682 26.4463H42.746C42.8004 26.4463 42.8448 26.4619 42.8793 26.4929C42.9139 26.524 42.9312 26.564 42.9312 26.6129V27.1063C42.9312 27.1507 42.9139 27.1885 42.8793 27.2196C42.8448 27.2507 42.8004 27.2663 42.746 27.2663H41.383V30.9529C41.383 30.9974 41.3657 31.0352 41.3312 31.0663C41.2967 31.0974 41.2522 31.1129 41.1979 31.1129H40.5164Z" fill="#FF9F29"/>
</svg>
