<svg width="19" height="16" viewBox="0 0 19 16" fill="none" xmlns="http://www.w3.org/2000/svg">
<path fill-rule="evenodd" clip-rule="evenodd" d="M3.9875 0.625977H15.0125C16.7981 0.625977 18.25 1.99166 18.25 3.68153V12.5704C18.25 14.2603 16.7981 15.626 15.0125 15.626H3.9875C2.20189 15.626 0.75 14.2603 0.75 12.5704V3.68153C0.75 1.99166 2.20189 0.625977 3.9875 0.625977ZM3.9875 2.29264C3.16356 2.29264 2.5 2.9168 2.5 3.68153V12.5704C2.5 13.3351 3.16356 13.9593 3.9875 13.9593H15.0125C15.8364 13.9593 16.5 13.3351 16.5 12.5704V3.68153C16.5 2.9168 15.8364 2.29264 15.0125 2.29264H3.9875ZM8.81007 12.0376C8.20424 12.5153 7.35963 12.2933 7.02061 11.6523C6.92411 11.4699 6.875 11.2665 6.875 11.0618V5.19007C6.875 4.5493 7.35825 3.95931 8.07552 3.95931C8.34691 3.95931 8.60407 4.05187 8.81007 4.21428L12.534 7.15016C13.0111 7.52633 13.1293 8.19662 12.8544 8.71645C12.7763 8.86404 12.6684 8.9958 12.534 9.10174L8.81007 12.0376ZM8.625 6.232V10.0199L11.0273 8.12595L8.625 6.232Z" fill="currentColor"/>
</svg>
