<svg width="25" height="22" viewBox="0 0 25 22" fill="none" xmlns="http://www.w3.org/2000/svg">
<path fill-rule="evenodd" clip-rule="evenodd" d="M8.04975 16.4893C7.86957 16.2206 7.77376 15.9076 7.77376 15.5879V6.41329C7.77376 5.49539 8.54713 4.75065 9.50194 4.75065C9.8348 4.75065 10.1606 4.84313 10.4401 5.01694L17.817 9.60427C18.6182 10.1025 18.8481 11.1309 18.331 11.902C18.1981 12.1002 18.0229 12.2689 17.817 12.397L10.4401 16.9843C9.63787 17.4831 8.5674 17.2612 8.04975 16.4893ZM9.94043 14.8139L16.0726 11.0006L9.94043 7.1873V14.8139Z" fill="white"/>
<path fill-rule="evenodd" clip-rule="evenodd" d="M4.52376 0.583984H19.6904C22.0837 0.583984 24.0238 2.44946 24.0238 4.75065V17.2507C24.0238 19.5518 22.0837 21.4173 19.6904 21.4173H4.52376C2.13053 21.4173 0.19043 19.5518 0.19043 17.2507V4.75065C0.19043 2.44946 2.13053 0.583984 4.52376 0.583984ZM4.52376 2.66732C3.32715 2.66732 2.3571 3.60006 2.3571 4.75065V17.2507C2.3571 18.4012 3.32715 19.334 4.52376 19.334H19.6904C20.887 19.334 21.8571 18.4012 21.8571 17.2507V4.75065C21.8571 3.60006 20.887 2.66732 19.6904 2.66732H4.52376Z" fill="white"/>
</svg>
