<svg width="22" height="24" viewBox="0 0 22 24" fill="none" xmlns="http://www.w3.org/2000/svg">
<path fill-rule="evenodd" clip-rule="evenodd" d="M9.44058 19.4907L8.0883 18.4006L8.08834 20.8458C8.08736 20.8614 8.0965 20.8839 8.12752 20.9136C8.22138 21.0033 8.3944 21.0264 8.52761 20.9771L9.44058 19.4907ZM11.0104 20.7562L10.1147 22.2146C10.058 22.3068 9.98682 22.3892 9.9038 22.4586C8.99305 23.2197 7.60187 23.1779 6.7455 22.3593C6.29488 21.9285 6.05386 21.3346 6.09029 20.7838L6.0885 16.9355L1.68899 13.3575C1.25506 13.0046 0.92052 12.545 0.718342 12.0237C0.0747182 10.3644 0.90076 8.49889 2.56188 7.85723L20.1336 1.06966C20.4738 0.938251 20.7946 0.996176 21.0397 1.16036C21.3443 1.35539 21.5231 1.70472 21.4979 2.07014C21.4936 2.13993 21.4816 2.21007 21.461 2.2795L16.6695 19.5415C16.1967 21.2447 14.4242 22.2426 12.7113 21.7774C12.2798 21.6602 11.8774 21.4551 11.53 21.175L11.0104 20.7562ZM8.6145 16.256L12.7849 19.6179C12.9169 19.7243 13.0703 19.8025 13.2353 19.8473C13.8904 20.0252 14.5647 19.6456 14.7421 19.0065L18.4412 5.68018L8.6145 16.256ZM6.97917 15.0806L16.8162 4.49695L3.28291 9.72292C2.65211 9.9665 2.33937 10.6726 2.5829 11.3002C2.65947 11.4976 2.78628 11.6718 2.95095 11.8056L6.97917 15.0806Z" fill="currentColor"/>
</svg>
