<svg width="20" height="20" viewBox="0 0 20 20" fill="none" xmlns="http://www.w3.org/2000/svg">
<path fill-rule="evenodd" clip-rule="evenodd" d="M18 14V2H6V14H18ZM18 16H3C2.44772 16 2 16.4477 2 17C2 17.5523 2.44772 18 3 18H18V16ZM20 18C20 19.1046 19.1046 20 18 20H3C1.34315 20 0 18.6569 0 17V2C0 0.89543 0.89543 0 2 0H18C19.1046 0 20 0.89543 20 2V18ZM2 14.1707C2.31278 14.0602 2.64936 14 3 14H4V2H2V14.1707ZM9.48737 8.51227C8.93508 8.51227 8.48737 8.06455 8.48737 7.51227C8.48737 6.95998 8.93508 6.51227 9.48737 6.51227H12.4874C13.0397 6.51227 13.4874 6.95998 13.4874 7.51227C13.4874 8.06455 13.0397 8.51227 12.4874 8.51227H9.48737ZM9.48737 11.5123C8.93508 11.5123 8.48737 11.0646 8.48737 10.5123C8.48737 9.95998 8.93508 9.51227 9.48737 9.51227H14.4874C15.0397 9.51227 15.4874 9.95998 15.4874 10.5123C15.4874 11.0646 15.0397 11.5123 14.4874 11.5123H9.48737Z" fill="currentColor"/>
</svg>
