<svg width="22" height="19" viewBox="0 0 22 19" fill="none" xmlns="http://www.w3.org/2000/svg">
<path fill-rule="evenodd" clip-rule="evenodd" d="M16 3H19C20.6569 3 22 4.34315 22 6V16C22 17.6569 20.6569 19 19 19H3C1.34315 19 0 17.6569 0 16V6C0 4.34315 1.34315 3 3 3H6C6 1.34315 7.34315 0 9 0H13C14.6569 0 16 1.34315 16 3ZM5.5 5V17H16.5V5H5.5ZM18.5 5V17H19C19.5523 17 20 16.5523 20 16V6C20 5.44772 19.5523 5 19 5H18.5ZM3 5H3.5V17H3C2.44772 17 2 16.5523 2 16V6C2 5.44772 2.44772 5 3 5ZM14 3C14 2.44772 13.5523 2 13 2H9C8.44772 2 8 2.44772 8 3H14Z" fill="currentColor"/>
</svg>
