<svg width="20" height="20" viewBox="0 0 20 20" fill="none" xmlns="http://www.w3.org/2000/svg">
<path fill-rule="evenodd" clip-rule="evenodd" d="M3.9025 3.9025C0.921497 6.8835 0.921497 11.7167 3.9025 14.6977C6.8835 17.6787 11.7167 17.6787 14.6977 14.6977C17.6787 11.7167 17.6787 6.8835 14.6977 3.9025C11.7167 0.921497 6.8835 0.921497 3.9025 3.9025ZM5.08101 5.08101C7.41114 2.75088 11.189 2.75088 13.5192 5.08101C15.8493 7.41114 15.8493 11.189 13.5192 13.5192C11.189 15.8493 7.41114 15.8493 5.08101 13.5192C2.75088 11.189 2.75088 7.41114 5.08101 5.08101Z" fill="#92929D"/>
<path d="M18.412 16.9021L14.9708 13.4609C14.1851 12.6752 13.0066 13.8538 13.7923 14.6394L17.2335 18.0807C18.0192 18.8663 19.1977 17.6878 18.412 16.9021Z" fill="#92929D"/>
</svg>
