<svg width="22" height="22" viewBox="0 0 22 22" fill="none" xmlns="http://www.w3.org/2000/svg">
<path fill-rule="evenodd" clip-rule="evenodd" d="M11.0002 6C9.34339 6 8.00024 4.65685 8.00024 3C8.00024 1.34315 9.34339 0 11.0002 0C12.6571 0 14.0002 1.34315 14.0002 3C14.0002 4.65685 12.6571 6 11.0002 6ZM11.0002 4C11.5525 4 12.0002 3.55228 12.0002 3C12.0002 2.44772 11.5525 2 11.0002 2C10.448 2 10.0002 2.44772 10.0002 3C10.0002 3.55228 10.448 4 11.0002 4ZM10.0002 6H12.0002C13.6571 6 15.0002 7.34315 15.0002 9V10C15.0002 11.6569 13.6571 13 12.0002 13H10.0002C8.34339 13 7.00024 11.6569 7.00024 10V9C7.00024 7.34315 8.34339 6 10.0002 6ZM10.0002 8C9.44796 8 9.00024 8.44771 9.00024 9V10C9.00024 10.5523 9.44796 11 10.0002 11H12.0002C12.5525 11 13.0002 10.5523 13.0002 10V9C13.0002 8.44771 12.5525 8 12.0002 8H10.0002ZM18.0002 15C16.3434 15 15.0002 13.6569 15.0002 12C15.0002 10.3431 16.3434 9 18.0002 9C19.6571 9 21.0002 10.3431 21.0002 12C21.0002 13.6569 19.6571 15 18.0002 15ZM18.0002 13C18.5525 13 19.0002 12.5523 19.0002 12C19.0002 11.4477 18.5525 11 18.0002 11C17.448 11 17.0002 11.4477 17.0002 12C17.0002 12.5523 17.448 13 18.0002 13ZM17.0002 15H19.0002C20.6571 15 22.0002 16.3431 22.0002 18V19C22.0002 20.6569 20.6571 22 19.0002 22H17.0002C15.3434 22 14.0002 20.6569 14.0002 19V18C14.0002 16.3431 15.3434 15 17.0002 15ZM17.0002 17C16.448 17 16.0002 17.4477 16.0002 18V19C16.0002 19.5523 16.448 20 17.0002 20H19.0002C19.5525 20 20.0002 19.5523 20.0002 19V18C20.0002 17.4477 19.5525 17 19.0002 17H17.0002ZM4.00024 15C2.34339 15 1.00024 13.6569 1.00024 12C1.00024 10.3431 2.34339 9 4.00024 9C5.6571 9 7.00024 10.3431 7.00024 12C7.00024 13.6569 5.6571 15 4.00024 15ZM4.00024 13C4.55253 13 5.00024 12.5523 5.00024 12C5.00024 11.4477 4.55253 11 4.00024 11C3.44796 11 3.00024 11.4477 3.00024 12C3.00024 12.5523 3.44796 13 4.00024 13ZM3.00024 15H5.00024C6.6571 15 8.00024 16.3431 8.00024 18V19C8.00024 20.6569 6.6571 22 5.00024 22H3.00024C1.34339 22 0.000244141 20.6569 0.000244141 19V18C0.000244141 16.3431 1.34339 15 3.00024 15ZM3.00024 17C2.44796 17 2.00024 17.4477 2.00024 18V19C2.00024 19.5523 2.44796 20 3.00024 20H5.00024C5.55253 20 6.00024 19.5523 6.00024 19V18C6.00024 17.4477 5.55253 17 5.00024 17H3.00024Z" fill="currentColor"/>
</svg>
