<svg width="21" height="22" viewBox="0 0 21 22" fill="none" xmlns="http://www.w3.org/2000/svg">
<path fill-rule="evenodd" clip-rule="evenodd" d="M7.50716 10.0728C10.0385 10.0728 12.0905 8.02077 12.0905 5.48946C12.0905 2.95816 10.0385 0.906128 7.50716 0.906128C4.97586 0.906128 2.92383 2.95816 2.92383 5.48946C2.92383 8.02077 4.97586 10.0728 7.50716 10.0728ZM7.50716 8.23946C5.98838 8.23946 4.75716 7.00824 4.75716 5.48946C4.75716 3.97068 5.98838 2.73946 7.50716 2.73946C9.02594 2.73946 10.2572 3.97068 10.2572 5.48946C10.2572 7.00824 9.02594 8.23946 7.50716 8.23946Z" fill="#92929D"/>
<path fill-rule="evenodd" clip-rule="evenodd" d="M7.50716 10.9895C11.5572 10.9895 14.8405 14.2727 14.8405 18.3228V20.1561C14.8405 20.6624 14.4301 21.0728 13.9238 21.0728H1.09049C0.584234 21.0728 0.173828 20.6624 0.173828 20.1561V18.3228C0.173828 14.2727 3.45707 10.9895 7.50716 10.9895ZM13.0072 19.2395V18.3228C13.0072 15.2852 10.5447 12.8228 7.50716 12.8228C4.4696 12.8228 2.00716 15.2852 2.00716 18.3228V19.2395H13.0072Z" fill="#92929D"/>
<path d="M17.5905 10.9895H19.4238C20.646 10.9895 20.646 9.15613 19.4238 9.15613H17.5905V7.32279C17.5905 6.10057 15.7572 6.10057 15.7572 7.32279V9.15613H13.9238C12.7016 9.15613 12.7016 10.9895 13.9238 10.9895H15.7572V12.8228C15.7572 14.045 17.5905 14.045 17.5905 12.8228V10.9895Z" fill="#92929D"/>
</svg>
