<svg width="17" height="21" viewBox="0 0 17 21" fill="none" xmlns="http://www.w3.org/2000/svg">
<path fill-rule="evenodd" clip-rule="evenodd" d="M3.8381 7.64443V5.81487C3.8381 3.00445 6.09371 0.720703 8.883 0.720703C11.6723 0.720703 13.9279 3.00445 13.9279 5.81487V7.64443H15.3558C16.1675 7.64443 16.8125 8.31032 16.8125 9.11643V19.2487C16.8125 20.0548 16.1675 20.7207 15.3558 20.7207H2.26917C1.45754 20.7207 0.8125 20.0548 0.8125 19.2487V9.11643C0.8125 8.31032 1.45754 7.64443 2.26917 7.64443H3.8381ZM2.63528 9.46261V18.9025H14.9897V9.46261H2.63528ZM12.1051 7.61642V5.81487C12.1051 4.00258 10.6595 2.53888 8.883 2.53888C7.10654 2.53888 5.66088 4.00258 5.66088 5.81487V7.61642H12.1051Z" fill="#92929D"/>
</svg>
