<svg width="17" height="19" viewBox="0 0 17 19" fill="none" xmlns="http://www.w3.org/2000/svg">
<path fill-rule="evenodd" clip-rule="evenodd" d="M8.80749 18.7207C8.52892 18.7221 8.2499 18.608 8.0495 18.3787L1.05947 10.3787C0.696084 9.96278 0.738648 9.33105 1.15454 8.96766C1.57043 8.60427 2.20217 8.64684 2.56556 9.06273L7.81251 15.0678L7.81251 1.7207C7.81251 1.16842 8.26023 0.720703 8.81251 0.720703C9.3648 0.720703 9.81251 1.16842 9.81251 1.7207V15.0507L15.0604 9.06167C15.4244 8.64629 16.0562 8.60462 16.4715 8.96859C16.8869 9.33257 16.9286 9.96436 16.5646 10.3797L9.64007 18.2823C9.46016 18.5469 9.15663 18.7207 8.81251 18.7207C8.81084 18.7207 8.80916 18.7207 8.80749 18.7207Z" fill="#92929D"/>
</svg>
