<svg width="21" height="21" viewBox="0 0 21 21" fill="none" xmlns="http://www.w3.org/2000/svg">
<path fill-rule="evenodd" clip-rule="evenodd" d="M6.47581 3.4207L7.14789 1.40448C7.284 0.996133 7.66614 0.720703 8.09657 0.720703H13.4966C13.927 0.720703 14.3091 0.996133 14.4453 1.40448L15.1173 3.4207H19.7965C20.3488 3.4207 20.7965 3.86842 20.7965 4.4207C20.7965 4.97299 20.3488 5.4207 19.7965 5.4207H18.9395L18.2056 17.8969C18.1123 19.4826 16.7992 20.7207 15.2108 20.7207H6.38238C4.79395 20.7207 3.48083 19.4826 3.38756 17.8969L2.65366 5.4207H1.8125C1.26022 5.4207 0.8125 4.97299 0.8125 4.4207C0.8125 3.86842 1.26022 3.4207 1.8125 3.4207H6.47581ZM8.584 3.4207H13.0091L12.7758 2.7207H8.81733L8.584 3.4207ZM16.936 5.4207H4.65712L5.38411 17.7794C5.4152 18.308 5.8529 18.7207 6.38238 18.7207H15.2108C15.7402 18.7207 16.1779 18.308 16.209 17.7794L16.936 5.4207ZM12.4985 7.95832C12.533 7.40712 13.0077 6.9882 13.5589 7.02265C14.1102 7.0571 14.5291 7.53187 14.4946 8.08308L14.0446 15.2831C14.0102 15.8343 13.5354 16.2532 12.9842 16.2188C12.433 16.1843 12.0141 15.7095 12.0485 15.1583L12.4985 7.95832ZM9.54462 15.1583C9.57907 15.7095 9.16016 16.1843 8.60895 16.2188C8.05774 16.2532 7.58297 15.8343 7.54852 15.2831L7.09852 8.08308C7.06407 7.53187 7.48298 7.0571 8.03419 7.02265C8.5854 6.9882 9.06017 7.40712 9.09462 7.95832L9.54462 15.1583Z" fill="#92929D"/>
</svg>
