<svg width="25" height="25" viewBox="0 0 25 25" fill="none" xmlns="http://www.w3.org/2000/svg">
<path fill-rule="evenodd" clip-rule="evenodd" d="M12.8125 24.7207C19.4399 24.7207 24.8125 19.3481 24.8125 12.7207C24.8125 6.09329 19.4399 0.720703 12.8125 0.720703C6.18508 0.720703 0.8125 6.09329 0.8125 12.7207C0.8125 19.3481 6.18508 24.7207 12.8125 24.7207Z" fill="white"/>
<path fill-rule="evenodd" clip-rule="evenodd" d="M12.8125 22.7207C18.3353 22.7207 22.8125 18.2436 22.8125 12.7207C22.8125 7.19786 18.3353 2.7207 12.8125 2.7207C7.28965 2.7207 2.8125 7.19786 2.8125 12.7207C2.8125 18.2436 7.28965 22.7207 12.8125 22.7207Z" fill="#92929D"/>
<path d="M13.7868 13.7207V17.7207C13.7868 19.054 11.7868 19.054 11.7868 17.7207V13.7207H7.86377C6.53044 13.7207 6.53044 11.7207 7.86377 11.7207H11.7868V7.7207C11.7868 6.38737 13.7868 6.38737 13.7868 7.7207V11.7207H17.7099C19.0433 11.7207 19.0433 13.7207 17.7099 13.7207H13.7868Z" fill="white"/>
</svg>
