<svg width="21" height="17" viewBox="0 0 21 17" fill="none" xmlns="http://www.w3.org/2000/svg">
<path fill-rule="evenodd" clip-rule="evenodd" d="M0.922487 8.1582C2.76674 3.62888 6.57172 0.720703 10.8125 0.720703C15.0533 0.720703 18.8583 3.62888 20.7025 8.1582C20.8492 8.51835 20.8492 8.92305 20.7025 9.28321C18.8583 13.8125 15.0533 16.7207 10.8125 16.7207C6.57172 16.7207 2.76674 13.8125 0.922487 9.28321C0.775838 8.92305 0.775838 8.51835 0.922487 8.1582ZM10.8125 14.8704C14.2315 14.8704 17.3662 12.5075 18.9624 8.7207C17.3662 4.93395 14.2315 2.57104 10.8125 2.57104C7.39345 2.57104 4.25875 4.93395 2.66259 8.7207C4.25875 12.5075 7.39345 14.8704 10.8125 14.8704ZM10.8125 12.367C8.83373 12.367 7.22961 10.7345 7.22961 8.7207C7.22961 6.70693 8.83373 5.07444 10.8125 5.07444C12.7913 5.07444 14.3954 6.70693 14.3954 8.7207C14.3954 10.7345 12.7913 12.367 10.8125 12.367ZM10.8125 10.5166C11.7871 10.5166 12.5772 9.71256 12.5772 8.7207C12.5772 7.72884 11.7871 6.92478 10.8125 6.92478C9.83788 6.92478 9.04779 7.72884 9.04779 8.7207C9.04779 9.71256 9.83788 10.5166 10.8125 10.5166Z" fill="#92929D"/>
</svg>
