<svg width="21" height="22" viewBox="0 0 21 22" fill="none" xmlns="http://www.w3.org/2000/svg">
<path fill-rule="evenodd" clip-rule="evenodd" d="M2.6829 3.679C-0.894301 7.2562 -0.894301 13.056 2.6829 16.6332C6.2601 20.2104 12.0599 20.2104 15.6371 16.6332C19.2143 13.056 19.2143 7.2562 15.6371 3.679C12.0599 0.101793 6.2601 0.101793 2.6829 3.679ZM4.09712 5.09321C6.89327 2.29706 11.4267 2.29706 14.2229 5.09321C17.019 7.88936 17.019 12.4228 14.2229 15.219C11.4267 18.0151 6.89327 18.0151 4.09712 15.219C1.30096 12.4228 1.30096 7.88936 4.09712 5.09321Z" fill="white"/>
<path d="M20.0943 19.2786L15.9649 15.1491C15.0221 14.2063 13.6078 15.6205 14.5506 16.5633L18.6801 20.6928C19.6229 21.6356 21.0371 20.2214 20.0943 19.2786Z" fill="white"/>
</svg>
