<svg width="21" height="21" viewBox="0 0 21 21" fill="none" xmlns="http://www.w3.org/2000/svg">
<path d="M17.2756 4.28711H6.72005C6.49904 4.28711 6.28708 4.37491 6.1308 4.53119C5.97452 4.68747 5.88672 4.89943 5.88672 5.12044V18.4538C5.88672 18.6748 5.97452 18.8868 6.1308 19.043C6.28708 19.1993 6.49904 19.2871 6.72005 19.2871H17.2756C17.4966 19.2871 17.7086 19.1993 17.8649 19.043C18.0211 18.8868 18.1089 18.6748 18.1089 18.4538V5.12044C18.1089 4.89943 18.0211 4.68747 17.8649 4.53119C17.7086 4.37491 17.4966 4.28711 17.2756 4.28711ZM16.9978 18.176H6.99783V5.39822H16.9978V18.176Z" fill="black"/>
<path d="M15.3316 2.3431C15.3316 2.12209 15.2438 1.91012 15.0875 1.75384C14.9312 1.59756 14.7193 1.50977 14.4983 1.50977H3.94271C3.72169 1.50977 3.50973 1.59756 3.35345 1.75384C3.19717 1.91012 3.10938 2.12209 3.10938 2.3431V15.6764C3.10938 15.8974 3.19717 16.1094 3.35345 16.2657C3.50973 16.422 3.72169 16.5098 3.94271 16.5098H4.22049V2.62088H15.3316V2.3431Z" fill="black"/>
</svg>
