<svg width="17" height="19" viewBox="0 0 17 19" fill="none" xmlns="http://www.w3.org/2000/svg">
<path d="M9.81251 17.7207V1.7207C9.81251 1.16842 9.3648 0.720703 8.81251 0.720703C8.26023 0.720703 7.81251 1.16842 7.81251 1.7207V17.7207C7.81251 18.273 8.26023 18.7207 8.81251 18.7207C9.3648 18.7207 9.81251 18.273 9.81251 17.7207Z" fill="#92929D"/>
<path d="M8.80362 3.2393L15.0604 10.3797C15.4244 10.7951 16.0562 10.8368 16.4715 10.4728C16.8869 10.1088 16.9286 9.47705 16.5646 9.06167L9.55466 1.06167C9.15592 0.606621 8.44759 0.607122 8.0495 1.06273L1.05947 9.06273C0.696084 9.47862 0.738648 10.1104 1.15454 10.4737C1.57043 10.8371 2.20217 10.7946 2.56556 10.3787L8.80362 3.2393Z" fill="#92929D"/>
</svg>
