<svg width="17" height="16" viewBox="0 0 17 16" fill="none" xmlns="http://www.w3.org/2000/svg">
<path d="M15.6236 0.623047H0.794359C0.471078 0.623047 0.208984 0.885109 0.208984 1.20839C0.208984 1.4062 0.208984 14.363 0.208984 14.5579C0.208984 14.8812 0.471078 15.1433 0.794359 15.1433H15.6236C15.9469 15.1433 16.209 14.8812 16.209 14.5579C16.209 14.3637 16.209 1.40661 16.209 1.20839C16.209 0.885109 15.9469 0.623047 15.6236 0.623047ZM7.62923 13.9726H1.3797V10.6935H7.62923V13.9726ZM7.62923 9.52273H1.3797V6.24361H7.62923V9.52273ZM15.0383 13.9726H8.79995V10.6935H15.0382V13.9726H15.0383ZM15.0383 9.52273H8.79995V6.24361H15.0382V9.52273H15.0383ZM15.0383 5.07286H1.3797V1.79377H15.0382V5.07286H15.0383Z" fill="#00B5E2"/>
</svg>
