<svg width="20" height="21" viewBox="0 0 20 21" fill="none" xmlns="http://www.w3.org/2000/svg">
<path fill-rule="evenodd" clip-rule="evenodd" d="M7.63086 9.78938C7.44972 9.5987 7.41655 9.15583 7.6506 8.63001C8.52806 6.28453 8.6471 5.84928 8.0848 5.25739L4.47548 1.4581C3.78231 0.728461 2.68097 0.914208 1.99996 1.63106C-0.666652 4.43802 -0.666652 8.96878 1.99996 11.7757L8.74233 18.873C11.4365 21.709 15.827 21.709 18.5212 18.873C19.1798 18.1797 19.3429 17.108 18.6855 16.416L15.0761 12.6167C14.4712 11.9799 14.0602 12.1045 11.8056 13.0369C11.2857 13.2909 10.9292 13.2613 10.7707 13.0945L7.63086 9.78938ZM17.0113 17.5575C15.1017 19.5012 12.0782 19.4806 10.1923 17.4955L3.44995 10.3982C1.56023 8.40905 1.51766 5.19248 3.32226 3.148L6.328 6.31194L6.32107 6.33749C6.22675 6.6824 6.05248 7.19763 5.80014 7.87369C5.28582 9.02453 5.3834 10.3274 6.18086 11.1669L9.32075 14.472C10.1409 15.3354 11.4429 15.4434 12.6301 14.8579C13.1804 14.6325 13.6471 14.4567 13.9696 14.3557L17.0113 17.5575Z" fill="currentColor"/>
<path d="M11.7 9.19997C11.7 8.75814 11.3418 8.39997 10.9 8.39997C10.3477 8.39997 9.9 7.95225 9.9 7.39997C9.9 6.84768 10.3477 6.39997 10.9 6.39997C12.4464 6.39997 13.7 7.65357 13.7 9.19997C13.7 9.75225 13.2523 10.2 12.7 10.2C12.1477 10.2 11.7 9.75225 11.7 9.19997Z" fill="currentColor"/>
<path d="M10.9 5.69997C12.833 5.69997 14.4 7.26697 14.4 9.19997C14.4 9.75225 14.8477 10.2 15.4 10.2C15.9523 10.2 16.4 9.75225 16.4 9.19997C16.4 6.1624 13.9376 3.69997 10.9 3.69997C10.3477 3.69997 9.9 4.14769 9.9 4.69997C9.9 5.25225 10.3477 5.69997 10.9 5.69997Z" fill="currentColor"/>
<path d="M17.1 9.19997C17.1 5.7758 14.3242 2.99997 10.9 2.99997C10.3477 2.99997 9.9 2.55225 9.9 1.99997C9.9 1.44768 10.3477 0.99997 10.9 0.99997C15.4287 0.99997 19.1 4.67123 19.1 9.19997C19.1 9.75225 18.6523 10.2 18.1 10.2C17.5477 10.2 17.1 9.75225 17.1 9.19997Z" fill="currentColor"/>
</svg>
