<svg width="21" height="19" viewBox="0 0 21 19" fill="none" xmlns="http://www.w3.org/2000/svg">
<path fill-rule="evenodd" clip-rule="evenodd" d="M3.92656 0.5H16.5266C18.5673 0.5 20.2266 2.13882 20.2266 4.16667V14.8333C20.2266 16.8612 18.5673 18.5 16.5266 18.5H3.92656C1.88587 18.5 0.226563 16.8612 0.226562 14.8333V4.16667C0.226562 2.13882 1.88587 0.5 3.92656 0.5ZM3.92656 2.5C2.98492 2.5 2.22656 3.24899 2.22656 4.16667V14.8333C2.22656 15.751 2.98492 16.5 3.92656 16.5H16.5266C17.4682 16.5 18.2266 15.751 18.2266 14.8333V4.16667C18.2266 3.24899 17.4682 2.5 16.5266 2.5H3.92656ZM9.43807 14.194C8.7457 14.7671 7.78043 14.5008 7.39297 13.7316C7.28268 13.5127 7.22656 13.2687 7.22656 13.023V5.97691C7.22656 5.20799 7.77885 4.5 8.59859 4.5C8.90875 4.5 9.20265 4.61107 9.43807 4.80596L13.694 8.32902C14.2393 8.78043 14.3743 9.58477 14.0601 10.2086C13.9709 10.3857 13.8475 10.5438 13.694 10.6709L9.43807 14.194ZM9.22656 7.22722V11.7727L11.9721 9.49997L9.22656 7.22722Z" fill="#778CA2"/>
</svg>
