<svg width="14" height="14" viewBox="0 0 14 14" fill="none" xmlns="http://www.w3.org/2000/svg">
<path fill-rule="evenodd" clip-rule="evenodd" d="M7.00002 5.58579L11.9498 0.636039C12.3403 0.245515 12.9735 0.245514 13.364 0.636039C13.7545 1.02656 13.7545 1.65973 13.364 2.05025L8.41423 7L13.364 11.9497C13.7545 12.3403 13.7545 12.9734 13.364 13.364C12.9735 13.7545 12.3403 13.7545 11.9498 13.364L7.00002 8.41421L2.05027 13.364C1.65974 13.7545 1.02658 13.7545 0.636056 13.364C0.245531 12.9734 0.245531 12.3403 0.636056 11.9497L5.5858 7L0.636056 2.05025C0.245531 1.65973 0.245531 1.02656 0.636056 0.636039C1.02658 0.245514 1.65974 0.245515 2.05027 0.636039L7.00002 5.58579Z" fill="#FAFAFB"/>
</svg>
