<svg width="72" height="54" viewBox="0 0 72 54" fill="none" xmlns="http://www.w3.org/2000/svg">
<path fill-rule="evenodd" clip-rule="evenodd" d="M65.0059 0.867188C68.3196 0.867188 71.0059 3.55348 71.0059 6.86719V47.0247C71.0059 50.3384 68.3196 53.0247 65.0059 53.0247H6.84473C3.53102 53.0247 0.844727 50.3384 0.844727 47.0247V6.86719C0.844727 3.55348 3.53102 0.867188 6.84472 0.867188H65.0059ZM24.8153 16.5293C24.8153 15.3787 25.8101 14.4459 27.0373 14.4459H35.9253H40.2525C40.5047 14.4459 40.7458 14.5385 40.9204 14.7022L46.7774 20.1937C46.9429 20.3489 47.0353 20.5557 47.0353 20.7708V26.9459V37.3626C47.0353 38.5132 46.0405 39.4459 44.8133 39.4459H27.0373C25.8101 39.4459 24.8153 38.5132 24.8153 37.3626V16.5293ZM34.6117 31.838C33.999 32.232 33.1478 31.8378 33.1478 31.1599V26.0653C33.1478 25.3874 33.999 24.9932 34.6117 25.3872L38.5739 27.9345C39.0908 28.2669 39.0908 28.9584 38.5739 29.2907L34.6117 31.838Z" fill="#00B391"/>
</svg>
