<svg width="19" height="15" viewBox="0 0 19 15" fill="none" xmlns="http://www.w3.org/2000/svg">
<path fill-rule="evenodd" clip-rule="evenodd" d="M0.9395 6.89477C2.55322 2.93162 5.88258 0.386963 9.59326 0.386963C13.3039 0.386963 16.6333 2.93162 18.247 6.89477C18.3753 7.20991 18.3753 7.56402 18.247 7.87916C16.6333 11.8423 13.3039 14.387 9.59326 14.387C5.88258 14.387 2.55322 11.8423 0.9395 7.87916C0.811182 7.56402 0.811182 7.20991 0.9395 6.89477ZM9.59326 12.7679C12.5849 12.7679 15.3278 10.7004 16.7244 7.38696C15.3278 4.07355 12.5849 2.00601 9.59326 2.00601C6.60159 2.00601 3.85873 4.07355 2.46209 7.38696C3.85873 10.7004 6.60159 12.7679 9.59326 12.7679ZM9.59326 10.5774C7.86183 10.5774 6.45823 9.14901 6.45823 7.38696C6.45823 5.62491 7.86183 4.19649 9.59326 4.19649C11.3247 4.19649 12.7283 5.62491 12.7283 7.38696C12.7283 9.14901 11.3247 10.5774 9.59326 10.5774ZM9.59326 8.95839C10.4461 8.95839 11.1374 8.25484 11.1374 7.38696C11.1374 6.51909 10.4461 5.81553 9.59326 5.81553C8.74047 5.81553 8.04914 6.51909 8.04914 7.38696C8.04914 8.25484 8.74047 8.95839 9.59326 8.95839Z" fill="currentColor"/>
</svg>
