<svg width="23" height="42" viewBox="0 0 23 42" fill="none" xmlns="http://www.w3.org/2000/svg">
<path d="M6.86685 41.622H6.81113C6.77403 41.57 6.73305 41.5211 6.68857 41.4759C6.08368 40.9391 5.45811 40.4231 4.87233 39.8645C3.21196 38.3482 1.82377 36.5323 0.773456 34.5028C0.4125 33.9394 0.277544 33.2495 0.397793 32.5825C0.736049 31.1949 0.984369 29.7847 1.26691 28.3821C1.32979 28.0665 1.38471 27.7501 1.44519 27.4345L1.37595 27.4078C1.06184 28.1063 0.750375 28.8048 0.441567 29.5034C0.398907 29.4123 0.382057 29.3103 0.393017 29.2095C0.51081 27.654 0.640541 26.0978 0.749579 24.5398C0.829545 23.8382 0.851913 23.1307 0.816435 22.425C0.712172 21.3505 0.498076 20.286 0.320591 19.2165C0.291647 19.1092 0.254655 19.0045 0.209961 18.9034L0.209961 18.845C0.264608 18.8506 0.31821 18.8643 0.36914 18.8859C1.70147 19.3033 3.03381 19.7316 4.36853 20.1499C4.48154 20.1742 4.59627 20.1888 4.71156 20.1933C3.93369 19.7173 3.12646 19.2961 2.29521 18.9326C2.07373 18.8738 1.88174 18.7292 1.75796 18.5277C1.63419 18.3263 1.58783 18.0831 1.62825 17.8472C1.64384 16.5451 1.93843 15.2634 2.49021 14.0968C3.10321 12.8974 3.97546 11.8652 5.03708 11.0828C5.63893 10.6095 6.30123 10.2273 7.00454 9.94737L9.03089 14.688C9.06154 14.6102 9.06154 14.5228 9.03089 14.445C8.75286 13.2995 8.47562 12.1549 8.19918 11.011C7.91186 9.79541 7.62932 8.60484 7.342 7.40424C7.06662 6.26042 6.79071 5.11104 6.51427 3.95608C6.48737 3.88596 6.48792 3.80754 6.51578 3.73783C6.54364 3.66813 6.59657 3.61275 6.6631 3.58372C8.18751 2.58183 9.7082 1.57243 11.2252 0.555514C11.2836 0.505102 11.3569 0.477539 11.4325 0.477539C11.5082 0.477539 11.5814 0.505102 11.6398 0.555514C13.1674 1.57243 14.6974 2.58517 16.2298 3.59374C16.3802 3.69309 16.3691 3.79077 16.3364 3.9277C16.1048 4.87532 15.8868 5.82627 15.6575 6.77389C15.1216 9.00031 14.581 11.2242 14.0355 13.4456C13.936 13.8589 13.8405 14.2747 13.7434 14.688L13.7967 14.7072C14.478 13.115 15.1569 11.5228 15.8661 9.86471C16.5267 10.2755 17.1658 10.6253 17.7547 11.0511C19.0663 11.9678 20.085 13.2768 20.6789 14.8082C21.0823 15.9272 21.2698 17.1191 21.2304 18.3148C21.2383 18.398 21.2199 18.4817 21.1781 18.5529C21.1362 18.6241 21.0733 18.6789 20.9988 18.7089C20.3963 19.0028 19.7962 19.3017 19.1961 19.598L18.1208 20.1349L18.1598 20.2518L22.6527 18.8324C22.581 19.148 22.511 19.4035 22.4672 19.6615C22.3813 20.1474 22.3168 20.6333 22.2356 21.1201C22.0135 22.0737 21.9556 23.0614 22.0645 24.0364C22.0971 24.2359 22.1035 24.4397 22.1202 24.6442C22.2083 25.8042 22.2956 26.9644 22.3821 28.1249C22.4147 28.5791 22.4426 29.0316 22.4728 29.4858H22.4155C22.0908 28.757 21.7692 28.049 21.4119 27.255C21.4021 27.3137 21.3968 27.3732 21.396 27.4328C21.7318 29.1026 22.0908 30.7624 22.3948 32.4372C22.4601 32.7896 22.7235 33.1227 22.4855 33.5476C22.1075 34.2206 21.8488 34.967 21.4509 35.6282C20.1867 37.6391 18.6221 39.4233 16.8172 40.9123C16.5601 41.1361 16.2911 41.3448 15.9926 41.5878C15.96 41.2989 15.9297 41.0802 15.913 40.8589C15.7395 38.7808 15.5748 36.7028 15.3941 34.6272C15.2063 32.4564 15.0049 30.2815 14.8059 28.1082C14.7902 28.0342 14.8006 27.9568 14.8352 27.8902C14.8697 27.8236 14.926 27.7723 14.9938 27.7459C16.5028 26.911 18.0081 26.0674 19.5097 25.2153C19.558 25.1808 19.5989 25.1362 19.63 25.0844C19.6611 25.0325 19.6816 24.9745 19.6903 24.9139C19.7532 24.3962 19.797 23.8736 19.836 23.3509C19.871 22.865 19.8941 22.3791 19.9243 21.8924C19.7572 21.9333 19.6235 21.9625 19.4914 22.0017C18.6851 22.2447 17.8693 22.4876 17.0703 22.7306C15.5477 23.1706 14.0188 23.6131 12.4899 24.0665C12.4477 24.0906 12.412 24.1255 12.3861 24.168C12.3602 24.2105 12.345 24.2591 12.3418 24.3094C12.3745 24.6743 12.4342 25.0383 12.4899 25.4006C12.7008 26.7983 12.9189 28.1934 13.1202 29.5935C13.1245 29.6559 13.1168 29.7185 13.0977 29.7777C13.0785 29.837 13.0483 29.8916 13.0088 29.9383C12.7215 30.2397 12.4135 30.5169 12.1118 30.8033L11.417 31.4671C10.8599 30.9344 10.3282 30.4293 9.80689 29.9091C9.7731 29.8684 9.74751 29.8209 9.73164 29.7696C9.71578 29.7182 9.70997 29.664 9.71457 29.6102C9.76073 29.1853 9.82838 28.7645 9.89285 28.3437C10.095 27.0151 10.2982 25.6856 10.5025 24.3553C10.5256 24.2 10.5184 24.1124 10.3433 24.0564C9.78063 23.9037 9.2243 23.7225 8.66558 23.5705L3.82413 22.1387C3.53681 22.0552 3.24472 21.9784 2.92716 21.8957V22.1069C2.99879 23.0646 3.06644 24.0222 3.15876 24.9773C3.17229 25.0333 3.19675 25.0857 3.23059 25.1313C3.26443 25.1769 3.30691 25.2146 3.35535 25.242C4.83333 26.0769 6.31449 26.9118 7.80203 27.7284C7.88428 27.7555 7.95378 27.8141 7.9967 27.8925C8.03962 27.971 8.0528 28.0635 8.03363 28.1517C8.0201 28.2351 8.03363 28.327 8.0201 28.4138L7.4781 34.527C7.39214 35.4988 7.31892 36.4982 7.23455 37.4826C7.11464 38.8635 6.99207 40.2433 6.86685 41.622Z" fill="#CC0033"/>
</svg>
