<?xml version="1.0" standalone="no"?>
<!DOCTYPE svg PUBLIC "-//W3C//DTD SVG 20010904//EN"
 "http://www.w3.org/TR/2001/REC-SVG-20010904/DTD/svg10.dtd">
<svg version="1.0" xmlns="http://www.w3.org/2000/svg"
 width="1344.000000pt" height="1344.000000pt" viewBox="0 0 1344.000000 1344.000000"
 preserveAspectRatio="xMidYMid meet">
<metadata>
Created by potrace 1.14, written by Peter Selinger 2001-2017
</metadata>
<g transform="translate(0.000000,1344.000000) scale(0.100000,-0.100000)"
fill="#000000" stroke="none">
<path d="M6610 13248 c-36 -23 -71 -47 -78 -54 -6 -7 -21 -16 -32 -19 -11 -3
-20 -10 -20 -15 0 -5 -6 -10 -12 -12 -15 -3 -306 -196 -326 -215 -6 -6 -21
-15 -32 -18 -11 -3 -20 -11 -20 -16 0 -5 -6 -9 -13 -9 -8 0 -22 -9 -32 -20
-10 -11 -21 -17 -25 -15 -5 3 -10 1 -12 -3 -1 -5 -86 -64 -188 -130 -102 -67
-190 -126 -196 -130 -5 -5 -21 -15 -35 -22 -13 -7 -26 -16 -29 -19 -3 -4 -61
-43 -128 -86 -68 -44 -129 -85 -135 -90 -7 -6 -45 -31 -84 -55 -69 -43 -104
-86 -94 -115 1 -5 5 -21 7 -35 3 -14 11 -50 19 -80 8 -30 16 -66 20 -80 5 -23
21 -90 46 -195 5 -22 12 -49 14 -60 2 -11 18 -78 35 -150 18 -71 33 -134 35
-140 1 -5 5 -21 8 -35 12 -47 88 -365 92 -385 2 -11 4 -20 5 -20 2 0 5 -13 13
-50 4 -22 13 -61 28 -120 5 -22 12 -50 14 -62 3 -13 7 -31 9 -40 15 -61 49
-201 52 -215 2 -10 6 -27 9 -38 3 -11 7 -29 10 -41 2 -11 6 -28 9 -37 3 -9 7
-28 10 -42 6 -32 9 -42 41 -175 15 -60 29 -121 31 -135 3 -14 7 -33 10 -42 3
-9 7 -25 9 -35 2 -10 11 -47 20 -83 9 -36 18 -75 20 -87 2 -12 6 -26 9 -31 3
-5 7 -22 10 -38 3 -16 14 -65 25 -110 12 -44 23 -91 25 -105 2 -13 5 -24 6
-24 1 0 3 -7 5 -15 2 -8 8 -35 14 -60 7 -25 14 -56 17 -70 3 -14 23 -97 45
-185 22 -88 41 -169 43 -180 1 -12 5 -25 8 -30 3 -6 9 -28 12 -50 4 -22 11
-53 16 -70 5 -16 12 -47 15 -68 4 -33 2 -37 -10 -27 -8 7 -15 16 -15 21 0 5
-9 28 -19 52 -11 23 -38 87 -61 142 -23 55 -50 118 -60 140 -9 22 -36 85 -60
140 -23 55 -55 128 -71 163 -16 35 -29 66 -29 71 0 4 -8 25 -19 47 -10 21 -58
131 -106 244 -48 113 -95 223 -104 245 -10 22 -36 82 -57 132 -21 51 -45 93
-52 93 -7 0 -39 -12 -70 -27 -31 -15 -59 -28 -62 -28 -21 -3 -223 -116 -232
-129 -4 -6 -8 -8 -8 -4 0 6 -43 -21 -180 -116 -25 -17 -47 -34 -50 -37 -3 -3
-26 -22 -51 -41 -26 -19 -53 -40 -60 -47 -88 -73 -130 -112 -226 -207 -62 -62
-113 -114 -113 -117 0 -4 -10 -17 -22 -29 -13 -13 -36 -41 -53 -63 -16 -21
-35 -43 -40 -49 -21 -22 -173 -253 -205 -311 -18 -33 -41 -74 -51 -91 -10 -17
-16 -34 -12 -37 3 -4 1 -7 -5 -7 -7 0 -12 -5 -12 -10 0 -6 -9 -29 -19 -53 -78
-170 -142 -376 -187 -602 -17 -85 -19 -102 -28 -177 -15 -122 -17 -149 -22
-243 -2 -55 -6 -122 -7 -148 -1 -27 0 -50 2 -53 3 -2 6 -13 8 -24 6 -38 45
-110 79 -142 31 -31 63 -50 124 -76 84 -35 196 -88 350 -166 96 -49 185 -94
197 -100 13 -6 23 -14 23 -18 0 -5 4 -8 10 -8 5 0 51 -25 102 -56 l93 -55 -48
5 c-41 4 -219 56 -382 110 -22 8 -74 24 -115 36 -41 12 -84 26 -95 30 -11 5
-74 25 -140 45 -66 20 -138 43 -160 50 -22 7 -114 37 -205 65 -91 29 -191 61
-224 71 -32 11 -61 17 -64 14 -3 -3 2 -27 10 -53 15 -43 19 -59 32 -128 6 -32
17 -96 20 -119 2 -11 6 -33 9 -50 3 -16 9 -48 13 -70 3 -22 7 -49 9 -60 2 -11
11 -63 20 -115 9 -52 20 -124 26 -160 5 -36 12 -76 14 -90 4 -23 8 -57 20
-160 2 -19 7 -55 11 -80 14 -95 8 -506 -11 -685 -8 -84 -16 -177 -20 -240 -2
-38 -6 -106 -10 -150 -3 -44 -8 -105 -10 -135 -3 -30 -7 -84 -10 -120 -3 -36
-7 -99 -10 -140 -3 -41 -8 -97 -10 -125 -3 -27 -8 -84 -10 -125 -3 -41 -8
-113 -12 -160 -3 -47 -6 -97 -7 -112 -1 -16 -3 -28 -6 -28 -3 0 -6 -28 -7 -63
-1 -34 -3 -93 -4 -132 -2 -38 1 -76 5 -84 10 -16 13 -11 106 199 65 149 94
214 150 335 18 39 36 80 41 93 13 32 30 18 24 -21 -4 -30 -30 -170 -60 -324
-3 -16 -8 -37 -10 -48 -2 -11 -8 -40 -13 -65 -6 -25 -14 -65 -17 -90 -4 -24
-9 -48 -12 -53 -2 -4 -6 -22 -9 -40 -2 -18 -6 -43 -9 -57 -6 -26 -12 -56 -20
-100 -3 -14 -7 -36 -10 -50 -3 -14 -7 -38 -10 -55 -3 -16 -8 -43 -12 -60 -3
-16 -7 -39 -9 -50 -1 -11 -3 -20 -4 -20 -1 0 -3 -7 -5 -15 -1 -8 -10 -51 -19
-95 -10 -44 -19 -91 -22 -105 -2 -14 -7 -36 -10 -50 -3 -14 -8 -36 -11 -50 -2
-14 -16 -72 -30 -130 -14 -58 -27 -114 -29 -125 -2 -11 -7 -40 -12 -65 -9 -47
-8 -184 2 -257 7 -58 61 -214 92 -271 67 -120 114 -205 114 -208 0 -9 247
-414 268 -440 5 -6 27 -37 48 -69 22 -33 44 -66 51 -75 6 -8 62 -82 123 -164
62 -83 117 -155 124 -162 6 -6 27 -30 46 -54 19 -24 40 -48 45 -54 6 -6 41
-47 80 -91 85 -98 418 -431 539 -540 49 -44 97 -87 106 -95 9 -8 47 -42 85
-75 39 -32 77 -66 87 -76 9 -9 37 -34 64 -55 48 -39 63 -53 146 -132 28 -26
49 -39 53 -33 3 6 8 37 10 68 5 62 13 156 21 238 2 28 7 75 9 105 2 30 5 55 5
55 1 0 3 23 5 50 2 28 6 77 9 110 3 33 8 86 11 117 3 32 8 86 11 120 3 35 8
88 9 118 4 51 9 113 20 220 3 25 7 74 10 110 3 36 7 85 9 110 3 25 7 83 11
130 3 47 7 105 10 130 6 63 16 197 20 250 1 25 6 81 10 125 4 44 9 96 10 115
2 19 6 67 9 105 4 39 9 99 11 135 3 36 7 81 10 100 2 19 7 69 10 110 3 41 8
98 11 125 3 28 7 75 9 105 3 30 7 82 11 115 3 33 8 85 9 115 2 30 6 80 10 110
8 73 15 154 20 215 2 28 6 79 9 115 3 36 8 90 11 120 2 30 7 75 9 100 3 25 8
83 11 130 4 47 8 97 11 112 2 15 6 63 9 105 2 43 5 78 6 78 3 0 11 150 10 182
-1 30 -45 79 -89 100 -20 10 -98 52 -174 94 -75 42 -142 79 -150 83 -7 3 -26
14 -43 24 -16 10 -55 32 -85 48 -30 16 -58 33 -62 39 -4 5 -8 6 -8 1 0 -5 -8
-3 -17 5 -19 15 -39 27 -108 64 -109 59 -323 180 -347 197 -16 11 -28 16 -28
12 0 -4 -8 -1 -17 7 -18 14 -31 22 -101 60 -20 11 -53 30 -72 41 -19 11 -55
31 -80 45 -163 89 -176 103 -185 211 -2 32 -7 82 -10 112 -3 30 -8 80 -10 110
-2 30 -7 87 -10 125 -3 39 -8 99 -10 135 -3 36 -7 94 -10 130 -9 109 -15 202
-18 258 -2 47 0 52 19 52 11 0 24 -3 28 -7 3 -4 17 -8 29 -10 12 -2 85 -22
162 -44 77 -22 147 -42 155 -44 8 -2 16 -4 18 -5 1 -2 5 -3 10 -4 32 -9 104
-30 138 -42 22 -7 49 -15 60 -17 21 -4 161 -45 184 -54 8 -3 20 -7 25 -8 6 -2
59 -17 118 -35 59 -17 113 -33 120 -34 7 -1 17 -4 22 -7 6 -4 24 -10 40 -14
17 -4 37 -9 45 -11 8 -2 76 -22 150 -44 74 -22 167 -50 205 -61 111 -33 125
-37 215 -65 47 -15 94 -28 105 -30 21 -3 159 -42 185 -52 8 -3 17 -6 20 -7 20
-6 96 -29 103 -31 4 -1 8 -2 10 -4 1 -1 9 -3 17 -5 8 -1 42 -11 75 -21 33 -10
65 -19 72 -20 86 -15 106 -47 90 -139 -8 -44 -20 -117 -23 -140 -1 -11 -7 -49
-13 -85 -5 -36 -12 -83 -16 -105 -3 -22 -7 -51 -9 -65 -2 -14 -7 -47 -11 -73
-4 -27 -9 -59 -11 -70 -3 -12 -6 -35 -8 -52 -3 -16 -7 -47 -10 -67 -3 -21 -8
-53 -11 -70 -3 -18 -7 -46 -10 -63 -10 -61 -15 -91 -20 -135 -3 -25 -8 -56
-10 -70 -6 -26 -13 -75 -20 -125 -2 -16 -4 -30 -5 -30 -1 0 -3 -16 -5 -35 -3
-19 -7 -48 -10 -65 -2 -16 -7 -48 -10 -70 -3 -22 -8 -51 -11 -65 -3 -14 -8
-41 -10 -60 -3 -19 -7 -48 -9 -65 -16 -118 -17 -183 -2 -211 9 -16 84 -94 167
-174 83 -80 198 -191 257 -248 l107 -103 40 40 c23 21 73 70 113 108 39 37
137 130 216 206 80 75 152 152 161 171 15 32 15 51 1 161 -4 28 -8 61 -10 75
-4 32 -12 85 -20 130 -3 20 -7 54 -10 75 -2 22 -4 40 -5 40 -2 0 -6 23 -14 85
-6 45 -16 112 -21 140 -4 24 -19 123 -21 143 -1 9 -2 18 -4 20 -3 4 -7 31 -14
96 -4 36 -9 67 -11 70 -1 3 -6 31 -10 61 -4 30 -8 64 -11 75 -2 11 -6 36 -8
55 -7 46 -16 108 -22 145 -3 17 -7 41 -9 55 -7 55 -18 126 -22 145 -6 28 -11
68 -17 152 -6 65 -4 74 16 96 14 16 50 33 93 46 39 11 140 41 225 66 85 25
162 47 170 49 8 2 22 6 30 9 12 5 46 15 115 33 6 2 42 12 80 24 39 12 77 23
85 25 8 2 44 12 80 23 141 42 156 46 170 48 8 1 32 8 53 17 20 9 37 14 37 12
0 -3 12 0 28 6 15 6 34 12 42 14 40 10 356 102 490 144 36 12 66 21 67 21 2 0
8 2 15 5 86 27 197 58 211 58 9 1 17 5 17 9 0 4 3 7 8 6 4 -1 34 7 67 17 33
10 62 19 65 20 3 1 25 7 50 14 25 6 56 16 70 21 14 6 36 12 50 14 14 3 25 5
25 6 0 1 15 3 32 6 32 4 33 3 28 -29 -3 -17 -7 -77 -10 -132 -11 -215 -19
-339 -31 -460 -3 -38 -7 -90 -9 -115 -2 -25 -4 -45 -5 -45 -1 0 -3 -20 -5 -45
-7 -88 -14 -137 -25 -166 -14 -35 -63 -80 -107 -96 -18 -7 -33 -15 -33 -19 0
-4 -8 -9 -17 -13 -10 -3 -25 -10 -33 -16 -21 -14 -192 -110 -196 -110 -2 0
-25 -13 -51 -28 -81 -49 -148 -86 -153 -87 -3 0 -16 -8 -30 -16 -23 -15 -211
-121 -355 -199 -33 -18 -77 -44 -97 -57 -21 -12 -40 -23 -43 -23 -2 0 -39 -21
-82 -46 -43 -25 -78 -45 -78 -43 0 2 -31 -15 -70 -38 -38 -22 -94 -53 -124
-69 -60 -32 -79 -56 -82 -99 -2 -27 7 -145 17 -230 2 -16 6 -61 9 -100 3 -38
8 -90 10 -115 7 -68 15 -158 20 -220 3 -30 7 -77 10 -105 4 -47 8 -81 20 -208
3 -28 8 -81 11 -117 10 -123 12 -145 18 -210 3 -36 8 -92 11 -125 2 -33 7 -82
10 -110 5 -47 7 -74 20 -222 3 -32 8 -84 11 -115 7 -77 14 -158 19 -243 2 -38
7 -83 9 -100 7 -36 19 -202 20 -262 1 -24 3 -43 6 -43 3 0 5 -17 6 -38 0 -20
4 -73 8 -117 8 -91 14 -162 21 -255 2 -36 7 -87 10 -115 3 -27 8 -77 10 -110
11 -164 15 -215 21 -270 3 -33 7 -82 9 -110 2 -27 6 -81 10 -120 9 -103 15
-173 20 -240 2 -33 6 -82 9 -110 3 -27 8 -79 10 -115 9 -107 17 -184 21 -198
5 -15 27 -6 60 25 11 10 52 43 90 74 39 31 80 65 91 75 12 11 43 37 70 59 26
22 61 52 78 67 17 15 42 36 56 48 170 145 533 514 685 698 11 13 29 34 40 47
11 12 34 40 50 60 17 20 35 42 41 49 28 31 239 313 298 400 37 55 74 105 81
113 8 7 17 22 20 33 3 11 11 20 16 20 5 0 9 4 9 9 0 6 22 45 50 88 27 43 50
83 50 90 0 6 3 13 8 15 7 3 104 194 108 214 1 6 48 105 105 220 120 246 122
256 72 419 -17 55 -38 143 -48 195 -9 52 -18 104 -20 115 -2 11 -4 20 -5 20
-1 0 -4 16 -7 35 -2 19 -16 87 -29 150 -13 63 -26 129 -29 145 -3 17 -7 41
-10 55 -12 52 -27 126 -31 150 -2 14 -7 36 -10 50 -3 14 -8 36 -10 50 -2 14
-7 36 -10 50 -11 49 -15 65 -19 92 -2 15 -6 35 -9 45 -3 10 -7 30 -10 46 -3
15 -7 35 -10 45 -3 9 -8 35 -11 57 -4 22 -8 49 -10 60 -2 11 -17 84 -34 163
-37 170 -34 150 -32 187 l2 30 20 -40 c11 -22 29 -60 39 -85 10 -25 34 -78 54
-119 20 -41 36 -80 36 -88 0 -7 5 -13 12 -13 6 0 9 -2 6 -5 -7 -7 131 -314
156 -347 16 -22 16 -18 11 82 -4 58 -8 130 -11 160 -2 30 -6 92 -9 138 -2 46
-7 101 -9 121 -3 20 -8 83 -11 141 -3 58 -8 125 -10 150 -3 25 -7 79 -10 120
-3 41 -7 103 -10 138 -7 96 -14 189 -20 277 -3 44 -8 103 -10 130 -3 28 -8 84
-11 125 -3 41 -7 89 -8 105 -16 158 -20 230 -20 355 1 217 13 347 54 545 10
50 21 110 25 135 3 25 8 56 10 70 5 29 11 68 20 125 3 23 8 52 10 65 3 14 7
42 10 63 3 21 7 48 10 60 3 12 7 33 9 47 2 14 10 48 16 75 6 28 13 58 15 68 2
10 7 27 10 37 3 10 8 27 10 38 4 24 -1 24 -118 -13 -45 -14 -85 -25 -89 -25
-4 -1 -28 -9 -53 -20 -25 -11 -45 -17 -45 -15 0 2 -16 -3 -35 -11 -19 -8 -38
-15 -42 -15 -5 -1 -12 -3 -18 -5 -72 -22 -131 -37 -137 -36 -5 1 -8 -3 -8 -8
0 -5 -3 -9 -7 -8 -5 1 -19 -2 -33 -6 -14 -4 -90 -28 -170 -52 -80 -25 -152
-48 -160 -51 -19 -8 -17 -7 -60 -17 -19 -5 -41 -13 -47 -18 -7 -6 -13 -7 -13
-3 0 4 -6 3 -12 -3 -7 -5 -26 -13 -43 -16 -16 -4 -100 -29 -185 -56 -149 -48
-169 -50 -170 -19 0 5 411 212 861 433 129 64 133 70 132 246 0 189 -13 362
-37 495 -4 17 -9 46 -12 65 -3 19 -8 46 -10 60 -19 102 -102 383 -138 465 -47
107 -93 204 -108 230 -10 17 -23 41 -29 55 -5 13 -13 27 -17 30 -4 3 -16 21
-26 40 -11 19 -40 66 -65 103 -25 38 -50 76 -56 85 -5 10 -12 19 -15 22 -8 8
-53 63 -80 100 -38 50 -97 115 -181 199 -80 80 -101 99 -189 171 -30 25 -57
47 -60 51 -8 9 -129 92 -156 107 -13 7 -24 17 -24 21 0 5 -11 12 -25 15 -14 4
-25 11 -25 16 0 6 -7 10 -15 10 -8 0 -15 5 -15 10 0 6 -4 10 -9 10 -6 0 -30
14 -54 30 -25 17 -50 30 -56 30 -6 0 -11 5 -11 10 0 6 -4 10 -8 10 -7 0 -136
76 -252 148 -44 27 -43 28 -57 -5 -24 -58 -191 -450 -206 -483 -16 -35 -29
-71 -31 -80 -1 -3 -4 -9 -7 -15 -4 -5 -39 -86 -79 -180 -68 -161 -94 -221
-125 -290 -40 -92 -79 -191 -77 -197 1 -5 -3 -8 -8 -8 -6 0 -10 -5 -10 -11 0
-10 -14 -45 -45 -114 -8 -16 -24 -54 -36 -82 -22 -53 -43 -72 -35 -30 7 31 17
79 21 97 2 8 4 15 5 15 1 0 3 9 5 20 1 11 8 40 14 65 6 25 14 54 16 65 9 37
16 70 21 94 3 14 7 28 9 31 2 4 7 20 10 36 3 16 16 74 30 129 14 55 28 111 31
125 3 14 21 88 40 165 19 77 37 151 40 165 3 14 7 33 10 42 3 9 7 26 9 37 3
12 7 30 10 42 2 11 7 30 11 41 3 11 7 30 9 41 2 12 15 65 29 118 14 52 27 106
30 120 3 13 7 33 10 44 3 11 12 49 20 85 9 36 20 79 25 97 5 17 7 34 3 37 -3
3 -1 6 4 6 5 0 10 8 10 18 1 9 4 28 7 42 3 14 8 35 11 48 3 13 8 32 11 42 3
10 8 28 10 39 5 29 44 189 56 231 5 19 11 46 13 60 3 14 5 25 6 25 1 0 3 7 5
15 2 8 13 56 25 105 12 50 24 99 26 110 2 11 13 56 25 100 12 44 23 91 24 105
2 14 22 99 45 190 58 234 101 420 102 437 0 5 4 14 10 21 6 6 8 12 5 12 -3 0
1 24 9 53 21 77 18 120 -8 144 -32 28 -345 233 -357 233 -5 0 -11 4 -13 9 -1
5 -66 50 -143 100 -77 50 -144 94 -150 99 -5 4 -46 31 -90 60 -44 28 -84 55
-90 59 -11 9 -61 42 -86 58 -9 5 -63 41 -120 80 -57 38 -112 74 -121 80 -85
52 -168 110 -168 117 0 4 -6 8 -12 8 -7 0 -38 18 -68 40 -109 79 -135 82 -220
28z"/>
</g>
</svg>
