<svg width="17" height="17" viewBox="0 0 17 17" fill="none" xmlns="http://www.w3.org/2000/svg">
<path d="M1.10547 2.23047H15.1055C15.6578 2.23047 16.1055 1.78275 16.1055 1.23047C16.1055 0.678184 15.6578 0.230469 15.1055 0.230469H1.10547C0.553184 0.230469 0.105469 0.678184 0.105469 1.23047C0.105469 1.78275 0.553184 2.23047 1.10547 2.23047Z" fill="#92929D"/>
<path d="M1.10547 16.2305H15.1055C15.6578 16.2305 16.1055 15.7828 16.1055 15.2305C16.1055 14.6782 15.6578 14.2305 15.1055 14.2305H1.10547C0.553184 14.2305 0.105469 14.6782 0.105469 15.2305C0.105469 15.7828 0.553184 16.2305 1.10547 16.2305Z" fill="#92929D"/>
<path d="M15.1055 9.23047H1.10547C0.553184 9.23047 0.105469 8.78275 0.105469 8.23047C0.105469 7.67818 0.553184 7.23047 1.10547 7.23047H15.1055C15.6578 7.23047 16.1055 7.67818 16.1055 8.23047C16.1055 8.78275 15.6578 9.23047 15.1055 9.23047Z" fill="#92929D"/>
</svg>
